<svg xmlns="http://www.w3.org/2000/svg" viewBox="0 0 99 72"><defs><style>.cls-1{fill:#d6d6d6;}.cls-2{fill:#c4c4c4;}.cls-3{fill:#eaeaea;}.cls-4{fill:#ccc;}</style></defs><g id="Layer_2" data-name="Layer 2"><g id="Layer_1-2" data-name="Layer 1"><rect class="cls-1" y="36" width="9" height="9"/><rect class="cls-2" x="9" y="45" width="9" height="9"/><rect class="cls-1" y="27" width="9" height="9"/><rect class="cls-1" x="9" y="36" width="9" height="9"/><rect class="cls-1" x="9" y="27" width="9" height="9"/><rect class="cls-3" x="9" y="18" width="9" height="9"/><rect class="cls-3" x="18" y="9" width="9" height="9" transform="translate(36 -9) rotate(90)"/><rect class="cls-1" x="18" y="18" width="9" height="9" transform="translate(45) rotate(90)"/><rect class="cls-1" x="18" y="27" width="9" height="9" transform="translate(54 9) rotate(90)"/><rect class="cls-1" x="18" y="36" width="9" height="9" transform="translate(63 18) rotate(90)"/><rect class="cls-1" x="18" y="45" width="9" height="9" transform="translate(72 27) rotate(90)"/><rect class="cls-2" x="18" y="54" width="9" height="9" transform="translate(81 36) rotate(90)"/><rect class="cls-4" x="27" y="9" width="9" height="9" transform="translate(45 -18) rotate(90)"/><rect class="cls-3" x="27" width="9" height="9" transform="translate(36 -27) rotate(90)"/><rect class="cls-4" x="27" y="18" width="9" height="9" transform="translate(54 -9) rotate(90)"/><rect class="cls-4" x="27" y="27" width="9" height="9" transform="translate(63 0) rotate(90)"/><rect class="cls-4" x="27" y="36" width="9" height="9" transform="translate(72 9) rotate(90)"/><rect class="cls-4" x="27" y="45" width="9" height="9" transform="translate(81 18) rotate(90)"/><rect class="cls-4" x="27" y="54" width="9" height="9" transform="translate(90 27) rotate(90)"/><rect class="cls-2" x="27" y="63" width="9" height="9" transform="translate(99 36) rotate(90)"/><rect class="cls-3" x="54" y="18" width="9" height="9"/><rect class="cls-4" x="63" y="27" width="9" height="9"/><rect class="cls-2" x="72" y="36" width="9" height="9"/><rect class="cls-2" x="81" y="45" width="9" height="9"/><rect class="cls-2" x="90" y="54" width="9" height="9"/><rect class="cls-2" x="54" y="54" width="9" height="9"/><rect class="cls-2" x="63" y="45" width="9" height="9"/><rect class="cls-2" x="81" y="27" width="9" height="9"/><rect class="cls-4" x="90" y="18" width="9" height="9"/></g></g></svg>