<svg xmlns="http://www.w3.org/2000/svg" viewBox="0 0 216 81"><defs><style>.cls-1{fill:#64bf6a;}.cls-2{fill:#5caa5e;}.cls-3{fill:#4b874b;}.cls-4{fill:#bae8bb;}</style></defs><g id="Layer_2" data-name="Layer 2"><g id="Layer_1-2" data-name="Layer 1"><polygon points="207 9 198 9 198 0 18 0 18 9 9 9 9 18 0 18 0 63 9 63 9 72 18 72 18 81 198 81 198 72 207 72 207 63 216 63 216 18 207 18 207 9"/><polygon class="cls-1" points="198 18 189 18 189 9 27 9 27 18 18 18 18 27 9 27 9 54 18 54 18 63 27 63 27 72 189 72 189 63 198 63 198 54 207 54 207 27 198 27 198 18"/><rect class="cls-2" x="18" y="54" width="9" height="9"/><rect class="cls-2" x="27" y="54" width="9" height="9"/><rect class="cls-2" x="36" y="54" width="9" height="9"/><rect class="cls-2" x="45" y="54" width="9" height="9"/><rect class="cls-2" x="54" y="54" width="9" height="9"/><rect class="cls-2" x="63" y="54" width="9" height="9"/><rect class="cls-2" x="72" y="54" width="9" height="9"/><rect class="cls-2" x="81" y="54" width="9" height="9"/><rect class="cls-2" x="90" y="54" width="9" height="9"/><rect class="cls-2" x="99" y="54" width="9" height="9"/><rect class="cls-2" x="108" y="54" width="9" height="9"/><rect class="cls-2" x="117" y="54" width="9" height="9"/><rect class="cls-2" x="126" y="54" width="9" height="9"/><rect class="cls-2" x="135" y="54" width="9" height="9"/><rect class="cls-2" x="144" y="54" width="9" height="9"/><rect class="cls-2" x="153" y="54" width="9" height="9"/><rect class="cls-2" x="162" y="54" width="9" height="9"/><rect class="cls-2" x="171" y="54" width="9" height="9"/><rect class="cls-2" x="180" y="54" width="9" height="9"/><rect class="cls-2" x="189" y="45" width="9" height="9"/><rect class="cls-2" x="189" y="36" width="9" height="9"/><rect class="cls-2" x="189" y="27" width="9" height="9"/><rect class="cls-2" x="180" y="18" width="9" height="9"/><rect class="cls-2" x="171" y="9" width="9" height="9"/><rect class="cls-3" x="27" y="63" width="9" height="9"/><rect class="cls-3" x="36" y="63" width="9" height="9"/><rect class="cls-3" x="45" y="63" width="9" height="9"/><rect class="cls-3" x="54" y="63" width="9" height="9"/><rect class="cls-3" x="63" y="63" width="9" height="9"/><rect class="cls-3" x="72" y="63" width="9" height="9"/><rect class="cls-3" x="81" y="63" width="9" height="9"/><rect class="cls-3" x="90" y="63" width="9" height="9"/><rect class="cls-3" x="99" y="63" width="9" height="9"/><rect class="cls-3" x="108" y="63" width="9" height="9"/><rect class="cls-3" x="117" y="63" width="9" height="9"/><rect class="cls-3" x="126" y="63" width="9" height="9"/><rect class="cls-3" x="135" y="63" width="9" height="9"/><rect class="cls-3" x="144" y="63" width="9" height="9"/><rect class="cls-3" x="153" y="63" width="9" height="9"/><rect class="cls-3" x="162" y="63" width="9" height="9"/><rect class="cls-3" x="171" y="63" width="9" height="9"/><rect class="cls-3" x="180" y="63" width="9" height="9"/><rect class="cls-3" x="189" y="54" width="9" height="9"/><rect class="cls-3" x="198" y="45" width="9" height="9"/><rect class="cls-3" x="198" y="36" width="9" height="9"/><rect class="cls-3" x="198" y="27" width="9" height="9"/><rect class="cls-3" x="189" y="18" width="9" height="9"/><rect class="cls-3" x="180" y="9" width="9" height="9"/><rect class="cls-4" x="27" y="9" width="9" height="9"/><rect class="cls-4" x="18" y="18" width="9" height="9"/><rect class="cls-4" x="36" y="9" width="9" height="9"/><rect class="cls-4" x="45" y="9" width="9" height="9"/><rect x="112.6" y="47.62" width="4.75" height="4.75"/><rect x="112.6" y="42.87" width="4.75" height="4.75"/><rect x="112.6" y="38.12" width="4.75" height="4.75"/><rect x="112.6" y="33.37" width="4.75" height="4.75"/><rect x="112.6" y="28.62" width="4.75" height="4.75"/><rect x="117.35" y="28.62" width="4.75" height="4.75"/><rect x="122.1" y="28.62" width="4.75" height="4.75"/><rect x="117.35" y="38.12" width="4.75" height="4.75"/><rect x="122.1" y="38.12" width="4.75" height="4.75"/><rect x="126.85" y="42.87" width="4.75" height="4.75"/><rect x="126.85" y="47.62" width="4.75" height="4.75"/><rect x="126.85" y="33.37" width="4.75" height="4.75"/><rect x="88.83" y="42.86" width="4.76" height="4.76"/><rect x="93.59" y="47.61" width="4.76" height="4.76"/><rect x="98.35" y="47.61" width="4.76" height="4.76"/><rect x="88.83" y="38.1" width="4.76" height="4.76"/><rect x="103.1" y="42.86" width="4.76" height="4.76"/><rect x="103.1" y="38.1" width="4.76" height="4.76"/><rect x="88.83" y="33.34" width="4.76" height="4.76"/><rect x="103.1" y="33.34" width="4.76" height="4.76"/><rect x="93.59" y="28.59" width="4.76" height="4.76"/><rect x="98.35" y="28.59" width="4.76" height="4.76"/><rect x="31.85" y="47.65" width="4.77" height="4.77"/><rect x="31.85" y="42.88" width="4.77" height="4.77"/><rect x="31.85" y="38.12" width="4.77" height="4.77"/><rect x="31.85" y="33.35" width="4.77" height="4.77"/><rect x="31.85" y="28.59" width="4.77" height="4.77"/><rect x="27.08" y="28.59" width="4.77" height="4.77"/><rect x="36.61" y="28.59" width="4.77" height="4.77"/><rect x="74.56" y="47.65" width="4.77" height="4.77"/><rect x="74.56" y="42.88" width="4.77" height="4.77"/><rect x="74.56" y="38.12" width="4.77" height="4.77"/><rect x="74.56" y="33.35" width="4.77" height="4.77"/><rect x="74.56" y="28.59" width="4.77" height="4.77"/><rect x="69.8" y="28.59" width="4.77" height="4.77"/><rect x="79.33" y="28.59" width="4.77" height="4.77"/><rect x="136.43" y="47.65" width="4.77" height="4.77"/><rect x="136.43" y="42.88" width="4.77" height="4.77"/><rect x="136.43" y="38.12" width="4.77" height="4.77"/><rect x="136.43" y="33.35" width="4.77" height="4.77"/><rect x="136.43" y="28.59" width="4.77" height="4.77"/><rect x="169.86" y="47.65" width="4.77" height="4.77"/><rect x="174.62" y="47.65" width="4.77" height="4.77"/><rect x="179.39" y="47.65" width="4.77" height="4.77"/><rect x="184.15" y="47.65" width="4.77" height="4.77"/><rect x="169.86" y="42.88" width="4.77" height="4.77"/><rect x="169.86" y="38.12" width="4.77" height="4.77"/><rect x="169.86" y="33.35" width="4.77" height="4.77"/><rect x="169.86" y="28.59" width="4.77" height="4.77"/><rect x="146.02" y="47.62" width="4.75" height="4.75"/><rect x="146.02" y="42.87" width="4.75" height="4.75"/><rect x="150.77" y="38.12" width="4.75" height="4.75"/><rect x="155.52" y="38.12" width="4.75" height="4.75"/><rect x="146.02" y="38.12" width="4.75" height="4.75"/><rect x="160.27" y="47.62" width="4.75" height="4.75"/><rect x="160.27" y="42.87" width="4.75" height="4.75"/><rect x="160.27" y="38.12" width="4.75" height="4.75"/><rect x="146.02" y="33.37" width="4.75" height="4.75"/><rect x="160.27" y="33.37" width="4.75" height="4.75"/><rect x="150.77" y="28.62" width="4.75" height="4.75"/><rect x="155.52" y="28.62" width="4.75" height="4.75"/><rect x="60.45" y="28.59" width="4.77" height="4.77" transform="translate(125.67 61.94) rotate(180)"/><rect x="60.45" y="33.35" width="4.77" height="4.77" transform="translate(125.67 71.47) rotate(180)"/><rect x="60.45" y="38.12" width="4.77" height="4.77" transform="translate(125.67 81) rotate(180)"/><rect x="46.15" y="28.59" width="4.77" height="4.77" transform="translate(97.08 61.94) rotate(180)"/><rect x="46.15" y="33.35" width="4.77" height="4.77" transform="translate(97.08 71.47) rotate(180)"/><rect x="46.15" y="38.12" width="4.77" height="4.77" transform="translate(97.08 81) rotate(180)"/><rect x="60.45" y="42.88" width="4.77" height="4.77" transform="translate(125.67 90.53) rotate(180)"/><rect x="46.15" y="42.88" width="4.77" height="4.77" transform="translate(97.08 90.53) rotate(180)"/><rect x="55.69" y="47.65" width="4.77" height="4.77" transform="translate(116.14 100.06) rotate(180)"/><rect x="50.92" y="47.65" width="4.77" height="4.77" transform="translate(106.61 100.06) rotate(180)"/></g></g></svg>