<svg xmlns="http://www.w3.org/2000/svg" viewBox="0 0 216 81"><defs><style>.cls-1{fill:#64bf6a;}.cls-2{fill:#5caa5e;}.cls-3{fill:#4b874b;}</style></defs><g id="Layer_2" data-name="Layer 2"><g id="Layer_1-2" data-name="Layer 1"><polygon points="207 9 198 9 198 0 18 0 18 9 9 9 9 18 0 18 0 63 9 63 9 72 18 72 18 81 198 81 198 72 207 72 207 63 216 63 216 18 207 18 207 9"/><polygon class="cls-1" points="198 18 189 18 189 9 27 9 27 18 18 18 18 27 9 27 9 54 18 54 18 63 27 63 27 72 189 72 189 63 198 63 198 54 207 54 207 27 198 27 198 18"/><rect class="cls-2" x="18" y="54" width="9" height="9"/><rect class="cls-2" x="27" y="54" width="9" height="9"/><rect class="cls-2" x="36" y="54" width="9" height="9"/><rect class="cls-2" x="45" y="54" width="9" height="9"/><rect class="cls-2" x="54" y="54" width="9" height="9"/><rect class="cls-2" x="63" y="54" width="9" height="9"/><rect class="cls-2" x="72" y="54" width="9" height="9"/><rect class="cls-2" x="81" y="54" width="9" height="9"/><rect class="cls-2" x="90" y="54" width="9" height="9"/><rect class="cls-2" x="99" y="54" width="9" height="9"/><rect class="cls-2" x="108" y="54" width="9" height="9"/><rect class="cls-2" x="117" y="54" width="9" height="9"/><rect class="cls-2" x="126" y="54" width="9" height="9"/><rect class="cls-2" x="135" y="54" width="9" height="9"/><rect class="cls-2" x="144" y="54" width="9" height="9"/><rect class="cls-2" x="153" y="54" width="9" height="9"/><rect class="cls-2" x="162" y="54" width="9" height="9"/><rect class="cls-2" x="171" y="54" width="9" height="9"/><rect class="cls-2" x="180" y="54" width="9" height="9"/><rect class="cls-2" x="189" y="45" width="9" height="9"/><rect class="cls-2" x="189" y="36" width="9" height="9"/><rect class="cls-2" x="189" y="27" width="9" height="9"/><rect class="cls-2" x="180" y="18" width="9" height="9"/><rect class="cls-2" x="171" y="9" width="9" height="9"/><rect class="cls-3" x="27" y="63" width="9" height="9"/><rect class="cls-3" x="36" y="63" width="9" height="9"/><rect class="cls-3" x="45" y="63" width="9" height="9"/><rect class="cls-3" x="54" y="63" width="9" height="9"/><rect class="cls-3" x="63" y="63" width="9" height="9"/><rect class="cls-3" x="72" y="63" width="9" height="9"/><rect class="cls-3" x="81" y="63" width="9" height="9"/><rect class="cls-3" x="90" y="63" width="9" height="9"/><rect class="cls-3" x="99" y="63" width="9" height="9"/><rect class="cls-3" x="108" y="63" width="9" height="9"/><rect class="cls-3" x="117" y="63" width="9" height="9"/><rect class="cls-3" x="126" y="63" width="9" height="9"/><rect class="cls-3" x="135" y="63" width="9" height="9"/><rect class="cls-3" x="144" y="63" width="9" height="9"/><rect class="cls-3" x="153" y="63" width="9" height="9"/><rect class="cls-3" x="162" y="63" width="9" height="9"/><rect class="cls-3" x="171" y="63" width="9" height="9"/><rect class="cls-3" x="180" y="63" width="9" height="9"/><rect class="cls-3" x="189" y="54" width="9" height="9"/><rect class="cls-3" x="198" y="45" width="9" height="9"/><rect class="cls-3" x="198" y="36" width="9" height="9"/><rect class="cls-3" x="198" y="27" width="9" height="9"/><rect class="cls-3" x="189" y="18" width="9" height="9"/><rect class="cls-3" x="180" y="9" width="9" height="9"/><rect x="33.43" y="50.39" width="6.55" height="6.55"/><rect x="33.43" y="43.84" width="6.55" height="6.55"/><rect x="33.43" y="37.3" width="6.55" height="6.55"/><rect x="33.43" y="30.75" width="6.55" height="6.55"/><rect x="33.43" y="24.2" width="6.55" height="6.55"/><rect x="39.97" y="24.2" width="6.55" height="6.55"/><rect x="46.52" y="24.2" width="6.55" height="6.55"/><rect x="39.97" y="37.3" width="6.55" height="6.55"/><rect x="46.52" y="37.3" width="6.55" height="6.55"/><rect x="53.07" y="30.75" width="6.55" height="6.55"/><rect x="65.81" y="50.39" width="6.55" height="6.55"/><rect x="65.81" y="43.84" width="6.55" height="6.55"/><rect x="72.35" y="37.3" width="6.55" height="6.55"/><rect x="78.9" y="37.3" width="6.55" height="6.55"/><rect x="65.81" y="37.3" width="6.55" height="6.55"/><rect x="85.44" y="50.39" width="6.55" height="6.55"/><rect x="85.44" y="43.84" width="6.55" height="6.55"/><rect x="85.44" y="37.3" width="6.55" height="6.55"/><rect x="65.81" y="30.75" width="6.55" height="6.55"/><rect x="85.44" y="30.75" width="6.55" height="6.55"/><rect x="72.35" y="24.2" width="6.55" height="6.55"/><rect x="78.9" y="24.2" width="6.55" height="6.55"/><rect x="169.48" y="50.39" width="6.55" height="6.55"/><rect x="176.03" y="50.39" width="6.55" height="6.55"/><rect x="162.93" y="43.84" width="6.55" height="6.55"/><rect x="169.48" y="37.3" width="6.55" height="6.55"/><rect x="176.03" y="37.3" width="6.55" height="6.55"/><rect x="162.93" y="37.3" width="6.55" height="6.55"/><rect x="162.93" y="30.75" width="6.55" height="6.55"/><rect x="169.48" y="24.2" width="6.55" height="6.55"/><rect x="176.03" y="24.2" width="6.55" height="6.55"/><rect x="117.82" y="24.07" width="6.55" height="6.55" transform="translate(242.18 54.68) rotate(180)"/><rect x="117.82" y="30.61" width="6.55" height="6.55" transform="translate(242.18 67.77) rotate(180)"/><rect x="117.82" y="37.16" width="6.55" height="6.55" transform="translate(242.18 80.86) rotate(180)"/><rect x="98.18" y="24.07" width="6.55" height="6.55" transform="translate(202.91 54.68) rotate(180)"/><rect x="98.18" y="30.61" width="6.55" height="6.55" transform="translate(202.91 67.77) rotate(180)"/><rect x="98.18" y="37.16" width="6.55" height="6.55" transform="translate(202.91 80.86) rotate(180)"/><rect x="117.82" y="43.7" width="6.55" height="6.55" transform="translate(242.18 93.95) rotate(180)"/><rect x="98.18" y="43.7" width="6.55" height="6.55" transform="translate(202.91 93.95) rotate(180)"/><rect x="111.27" y="50.25" width="6.55" height="6.55" transform="translate(229.09 107.05) rotate(180)"/><rect x="104.73" y="50.25" width="6.55" height="6.55" transform="translate(216 107.05) rotate(180)"/><rect x="130.56" y="50.39" width="6.55" height="6.55"/><rect x="137.1" y="50.39" width="6.55" height="6.55"/><rect x="143.65" y="50.39" width="6.55" height="6.55"/><rect x="150.19" y="43.84" width="6.55" height="6.55"/><rect x="143.65" y="37.3" width="6.55" height="6.55"/><rect x="137.1" y="37.3" width="6.55" height="6.55"/><rect x="130.56" y="30.75" width="6.55" height="6.55"/><rect x="137.1" y="24.2" width="6.55" height="6.55"/><rect x="143.65" y="24.2" width="6.55" height="6.55"/><rect x="150.19" y="24.2" width="6.55" height="6.55"/></g></g></svg>