<svg xmlns="http://www.w3.org/2000/svg" viewBox="0 0 594 108"><defs><style>.cls-1{fill:#ccc;}.cls-2{fill:#e6e6e6;}.cls-3{fill:#b3b3b3;}</style></defs><g id="Layer_2" data-name="Layer 2"><g id="Layer_1-2" data-name="Layer 1"><rect class="cls-1" x="9" y="81" width="9" height="9"/><rect class="cls-1" y="72" width="9" height="9"/><rect class="cls-1" x="18" y="81" width="9" height="9"/><rect class="cls-1" x="27" y="81" width="9" height="9"/><rect class="cls-1" x="36" y="81" width="9" height="9"/><rect class="cls-1" x="45" y="81" width="9" height="9"/><rect class="cls-1" x="54" y="81" width="9" height="9"/><rect class="cls-1" x="63" y="81" width="9" height="9"/><rect class="cls-1" x="72" y="81" width="9" height="9"/><rect class="cls-1" x="81" y="81" width="9" height="9"/><rect class="cls-1" x="90" y="81" width="9" height="9"/><rect class="cls-1" x="99" y="81" width="9" height="9"/><rect class="cls-1" x="108" y="81" width="9" height="9"/><rect class="cls-1" x="117" y="81" width="9" height="9"/><rect class="cls-1" x="126" y="81" width="9" height="9"/><rect class="cls-1" x="135" y="81" width="9" height="9"/><rect class="cls-1" x="144" y="81" width="9" height="9"/><rect class="cls-1" x="153" y="81" width="9" height="9"/><rect class="cls-1" x="162" y="81" width="9" height="9"/><rect class="cls-1" x="171" y="81" width="9" height="9"/><rect class="cls-1" x="180" y="81" width="9" height="9"/><rect class="cls-1" x="189" y="81" width="9" height="9"/><rect class="cls-1" x="198" y="81" width="9" height="9"/><rect class="cls-1" x="207" y="81" width="9" height="9"/><rect class="cls-1" x="216" y="81" width="9" height="9"/><rect class="cls-1" x="225" y="81" width="9" height="9"/><rect class="cls-1" x="234" y="81" width="9" height="9"/><rect class="cls-1" x="243" y="81" width="9" height="9"/><rect class="cls-1" x="252" y="81" width="9" height="9"/><rect class="cls-1" x="261" y="81" width="9" height="9"/><rect class="cls-1" x="270" y="81" width="9" height="9"/><rect class="cls-1" x="279" y="81" width="9" height="9"/><rect class="cls-1" x="288" y="81" width="9" height="9"/><rect class="cls-1" x="297" y="81" width="9" height="9"/><rect class="cls-1" x="306" y="81" width="9" height="9"/><rect class="cls-1" x="315" y="81" width="9" height="9"/><rect class="cls-1" x="324" y="81" width="9" height="9"/><rect class="cls-1" x="333" y="81" width="9" height="9"/><rect class="cls-1" x="342" y="81" width="9" height="9"/><rect class="cls-1" x="351" y="81" width="9" height="9"/><rect class="cls-1" x="360" y="81" width="9" height="9"/><rect class="cls-1" x="369" y="81" width="9" height="9"/><rect class="cls-1" x="378" y="81" width="9" height="9"/><rect class="cls-1" x="387" y="81" width="9" height="9"/><rect class="cls-1" x="396" y="81" width="9" height="9"/><rect class="cls-1" x="405" y="81" width="9" height="9"/><rect class="cls-1" x="414" y="81" width="9" height="9"/><rect class="cls-1" x="423" y="81" width="9" height="9"/><rect class="cls-1" x="432" y="81" width="9" height="9"/><rect class="cls-1" x="441" y="81" width="9" height="9"/><rect class="cls-1" x="450" y="81" width="9" height="9"/><rect class="cls-1" x="459" y="81" width="9" height="9"/><rect class="cls-1" x="468" y="81" width="9" height="9"/><rect class="cls-1" x="477" y="81" width="9" height="9"/><rect class="cls-1" x="486" y="81" width="9" height="9"/><rect class="cls-1" x="495" y="81" width="9" height="9"/><rect class="cls-1" x="504" y="81" width="9" height="9"/><rect class="cls-1" x="513" y="81" width="9" height="9"/><rect class="cls-1" x="522" y="81" width="9" height="9"/><rect class="cls-1" x="531" y="81" width="9" height="9"/><rect class="cls-1" x="540" y="81" width="9" height="9"/><rect class="cls-1" x="549" y="81" width="9" height="9"/><rect class="cls-1" x="558" y="81" width="9" height="9"/><rect class="cls-1" x="567" y="81" width="9" height="9"/><rect class="cls-1" x="576" y="81" width="9" height="9"/><rect class="cls-1" x="585" y="72" width="9" height="9"/><rect class="cls-1" x="585" y="63" width="9" height="9"/><rect class="cls-1" x="585" y="54" width="9" height="9"/><rect class="cls-1" x="585" y="45" width="9" height="9"/><rect class="cls-1" x="585" y="36" width="9" height="9"/><rect class="cls-1" x="585" y="27" width="9" height="9"/><rect class="cls-1" x="585" y="18" width="9" height="9"/><rect class="cls-1" x="585" y="9" width="9" height="9"/><rect class="cls-2" x="9" width="9" height="9"/><rect class="cls-2" x="18" width="9" height="9"/><rect class="cls-2" x="9" y="9" width="9" height="9"/><rect class="cls-2" x="18" y="9" width="9" height="9"/><rect class="cls-2" x="9" y="18" width="9" height="9"/><rect class="cls-2" x="18" y="18" width="9" height="9"/><rect class="cls-2" x="9" y="27" width="9" height="9"/><rect class="cls-2" x="18" y="27" width="9" height="9"/><rect class="cls-2" x="9" y="36" width="9" height="9"/><rect class="cls-2" x="18" y="36" width="9" height="9"/><rect class="cls-2" x="9" y="45" width="9" height="9"/><rect class="cls-2" x="18" y="45" width="9" height="9"/><rect class="cls-2" x="9" y="54" width="9" height="9"/><rect class="cls-2" x="18" y="54" width="9" height="9"/><rect class="cls-2" x="9" y="63" width="9" height="9"/><rect class="cls-2" y="9" width="9" height="9"/><rect class="cls-2" y="18" width="9" height="9"/><rect class="cls-2" y="27" width="9" height="9"/><rect class="cls-2" y="36" width="9" height="9"/><rect class="cls-2" y="45" width="9" height="9"/><rect class="cls-2" y="54" width="9" height="9"/><rect class="cls-2" y="63" width="9" height="9"/><rect class="cls-2" x="18" y="63" width="9" height="9"/><rect class="cls-2" x="9" y="72" width="9" height="9"/><rect class="cls-2" x="18" y="72" width="9" height="9"/><rect class="cls-2" x="27" width="9" height="9"/><rect class="cls-2" x="36" width="9" height="9"/><rect class="cls-2" x="27" y="9" width="9" height="9"/><rect class="cls-2" x="36" y="9" width="9" height="9"/><rect class="cls-2" x="27" y="18" width="9" height="9"/><rect class="cls-2" x="36" y="18" width="9" height="9"/><rect class="cls-2" x="27" y="27" width="9" height="9"/><rect class="cls-2" x="36" y="27" width="9" height="9"/><rect class="cls-2" x="27" y="36" width="9" height="9"/><rect class="cls-2" x="36" y="36" width="9" height="9"/><rect class="cls-2" x="27" y="45" width="9" height="9"/><rect class="cls-2" x="36" y="45" width="9" height="9"/><rect class="cls-2" x="27" y="54" width="9" height="9"/><rect class="cls-2" x="36" y="54" width="9" height="9"/><rect class="cls-2" x="27" y="63" width="9" height="9"/><rect class="cls-2" x="36" y="63" width="9" height="9"/><rect class="cls-2" x="27" y="72" width="9" height="9"/><rect class="cls-2" x="36" y="72" width="9" height="9"/><rect class="cls-2" x="45" width="9" height="9"/><rect class="cls-2" x="54" width="9" height="9"/><rect class="cls-2" x="45" y="9" width="9" height="9"/><rect class="cls-2" x="54" y="9" width="9" height="9"/><rect class="cls-2" x="45" y="18" width="9" height="9"/><rect class="cls-2" x="54" y="18" width="9" height="9"/><rect class="cls-2" x="45" y="27" width="9" height="9"/><rect class="cls-2" x="54" y="27" width="9" height="9"/><rect class="cls-2" x="45" y="36" width="9" height="9"/><rect class="cls-2" x="54" y="36" width="9" height="9"/><rect class="cls-2" x="45" y="45" width="9" height="9"/><rect class="cls-2" x="54" y="45" width="9" height="9"/><rect class="cls-2" x="45" y="54" width="9" height="9"/><rect class="cls-2" x="54" y="54" width="9" height="9"/><rect class="cls-2" x="45" y="63" width="9" height="9"/><rect class="cls-2" x="54" y="63" width="9" height="9"/><rect class="cls-2" x="45" y="72" width="9" height="9"/><rect class="cls-2" x="54" y="72" width="9" height="9"/><rect class="cls-2" x="63" width="9" height="9"/><rect class="cls-2" x="72" width="9" height="9"/><rect class="cls-2" x="63" y="9" width="9" height="9"/><rect class="cls-2" x="72" y="9" width="9" height="9"/><rect class="cls-2" x="63" y="18" width="9" height="9"/><rect class="cls-2" x="72" y="18" width="9" height="9"/><rect class="cls-2" x="63" y="27" width="9" height="9"/><rect class="cls-2" x="72" y="27" width="9" height="9"/><rect class="cls-2" x="63" y="36" width="9" height="9"/><rect class="cls-2" x="72" y="36" width="9" height="9"/><rect class="cls-2" x="63" y="45" width="9" height="9"/><rect class="cls-2" x="72" y="45" width="9" height="9"/><rect class="cls-2" x="63" y="54" width="9" height="9"/><rect class="cls-2" x="72" y="54" width="9" height="9"/><rect class="cls-2" x="63" y="63" width="9" height="9"/><rect class="cls-2" x="72" y="63" width="9" height="9"/><rect class="cls-2" x="63" y="72" width="9" height="9"/><rect class="cls-2" x="72" y="72" width="9" height="9"/><rect class="cls-2" x="81" width="9" height="9"/><rect class="cls-2" x="90" width="9" height="9"/><rect class="cls-2" x="81" y="9" width="9" height="9"/><rect class="cls-2" x="90" y="9" width="9" height="9"/><rect class="cls-2" x="81" y="18" width="9" height="9"/><rect class="cls-2" x="90" y="18" width="9" height="9"/><rect class="cls-2" x="81" y="27" width="9" height="9"/><rect class="cls-2" x="90" y="27" width="9" height="9"/><rect class="cls-2" x="81" y="36" width="9" height="9"/><rect class="cls-2" x="90" y="36" width="9" height="9"/><rect class="cls-2" x="81" y="45" width="9" height="9"/><rect class="cls-2" x="90" y="45" width="9" height="9"/><rect class="cls-2" x="81" y="54" width="9" height="9"/><rect class="cls-2" x="90" y="54" width="9" height="9"/><rect class="cls-2" x="81" y="63" width="9" height="9"/><rect class="cls-2" x="90" y="63" width="9" height="9"/><rect class="cls-2" x="81" y="72" width="9" height="9"/><rect class="cls-2" x="90" y="72" width="9" height="9"/><rect class="cls-2" x="99" width="9" height="9"/><rect class="cls-2" x="108" width="9" height="9"/><rect class="cls-2" x="99" y="9" width="9" height="9"/><rect class="cls-2" x="108" y="9" width="9" height="9"/><rect class="cls-2" x="99" y="18" width="9" height="9"/><rect class="cls-2" x="108" y="18" width="9" height="9"/><rect class="cls-2" x="99" y="27" width="9" height="9"/><rect class="cls-2" x="108" y="27" width="9" height="9"/><rect class="cls-2" x="99" y="36" width="9" height="9"/><rect class="cls-2" x="108" y="36" width="9" height="9"/><rect class="cls-2" x="99" y="45" width="9" height="9"/><rect class="cls-2" x="108" y="45" width="9" height="9"/><rect class="cls-2" x="99" y="54" width="9" height="9"/><rect class="cls-2" x="108" y="54" width="9" height="9"/><rect class="cls-2" x="99" y="63" width="9" height="9"/><rect class="cls-2" x="108" y="63" width="9" height="9"/><rect class="cls-2" x="99" y="72" width="9" height="9"/><rect class="cls-2" x="108" y="72" width="9" height="9"/><rect class="cls-2" x="117" width="9" height="9"/><rect class="cls-2" x="126" width="9" height="9"/><rect class="cls-2" x="117" y="9" width="9" height="9"/><rect class="cls-2" x="126" y="9" width="9" height="9"/><rect class="cls-2" x="117" y="18" width="9" height="9"/><rect class="cls-2" x="126" y="18" width="9" height="9"/><rect class="cls-2" x="117" y="27" width="9" height="9"/><rect class="cls-2" x="126" y="27" width="9" height="9"/><rect class="cls-2" x="117" y="36" width="9" height="9"/><rect class="cls-2" x="126" y="36" width="9" height="9"/><rect class="cls-2" x="117" y="45" width="9" height="9"/><rect class="cls-2" x="126" y="45" width="9" height="9"/><rect class="cls-2" x="117" y="54" width="9" height="9"/><rect class="cls-2" x="126" y="54" width="9" height="9"/><rect class="cls-2" x="117" y="63" width="9" height="9"/><rect class="cls-2" x="126" y="63" width="9" height="9"/><rect class="cls-2" x="117" y="72" width="9" height="9"/><rect class="cls-2" x="126" y="72" width="9" height="9"/><rect class="cls-2" x="135" width="9" height="9"/><rect class="cls-2" x="144" width="9" height="9"/><rect class="cls-2" x="135" y="9" width="9" height="9"/><rect class="cls-2" x="144" y="9" width="9" height="9"/><rect class="cls-2" x="135" y="18" width="9" height="9"/><rect class="cls-2" x="144" y="18" width="9" height="9"/><rect class="cls-2" x="135" y="27" width="9" height="9"/><rect class="cls-2" x="144" y="27" width="9" height="9"/><rect class="cls-2" x="135" y="36" width="9" height="9"/><rect class="cls-2" x="144" y="36" width="9" height="9"/><rect class="cls-2" x="135" y="45" width="9" height="9"/><rect class="cls-2" x="144" y="45" width="9" height="9"/><rect class="cls-2" x="135" y="54" width="9" height="9"/><rect class="cls-2" x="144" y="54" width="9" height="9"/><rect class="cls-2" x="135" y="63" width="9" height="9"/><rect class="cls-2" x="144" y="63" width="9" height="9"/><rect class="cls-2" x="135" y="72" width="9" height="9"/><rect class="cls-2" x="144" y="72" width="9" height="9"/><rect class="cls-2" x="153" width="9" height="9"/><rect class="cls-2" x="162" width="9" height="9"/><rect class="cls-2" x="153" y="9" width="9" height="9"/><rect class="cls-2" x="162" y="9" width="9" height="9"/><rect class="cls-2" x="153" y="18" width="9" height="9"/><rect class="cls-2" x="162" y="18" width="9" height="9"/><rect class="cls-2" x="153" y="27" width="9" height="9"/><rect class="cls-2" x="162" y="27" width="9" height="9"/><rect class="cls-2" x="153" y="36" width="9" height="9"/><rect class="cls-2" x="162" y="36" width="9" height="9"/><rect class="cls-2" x="153" y="45" width="9" height="9"/><rect class="cls-2" x="162" y="45" width="9" height="9"/><rect class="cls-2" x="153" y="54" width="9" height="9"/><rect class="cls-2" x="162" y="54" width="9" height="9"/><rect class="cls-2" x="153" y="63" width="9" height="9"/><rect class="cls-2" x="162" y="63" width="9" height="9"/><rect class="cls-2" x="153" y="72" width="9" height="9"/><rect class="cls-2" x="162" y="72" width="9" height="9"/><rect class="cls-2" x="171" width="9" height="9"/><rect class="cls-2" x="180" width="9" height="9"/><rect class="cls-2" x="171" y="9" width="9" height="9"/><rect class="cls-2" x="180" y="9" width="9" height="9"/><rect class="cls-2" x="171" y="18" width="9" height="9"/><rect class="cls-2" x="180" y="18" width="9" height="9"/><rect class="cls-2" x="171" y="27" width="9" height="9"/><rect class="cls-2" x="180" y="27" width="9" height="9"/><rect class="cls-2" x="171" y="36" width="9" height="9"/><rect class="cls-2" x="180" y="36" width="9" height="9"/><rect class="cls-2" x="171" y="45" width="9" height="9"/><rect class="cls-2" x="180" y="45" width="9" height="9"/><rect class="cls-2" x="171" y="54" width="9" height="9"/><rect class="cls-2" x="180" y="54" width="9" height="9"/><rect class="cls-2" x="171" y="63" width="9" height="9"/><rect class="cls-2" x="180" y="63" width="9" height="9"/><rect class="cls-2" x="171" y="72" width="9" height="9"/><rect class="cls-2" x="180" y="72" width="9" height="9"/><rect class="cls-2" x="189" width="9" height="9"/><rect class="cls-2" x="198" width="9" height="9"/><rect class="cls-2" x="189" y="9" width="9" height="9"/><rect class="cls-2" x="198" y="9" width="9" height="9"/><rect class="cls-2" x="189" y="18" width="9" height="9"/><rect class="cls-2" x="198" y="18" width="9" height="9"/><rect class="cls-2" x="189" y="27" width="9" height="9"/><rect class="cls-2" x="198" y="27" width="9" height="9"/><rect class="cls-2" x="189" y="36" width="9" height="9"/><rect class="cls-2" x="198" y="36" width="9" height="9"/><rect class="cls-2" x="189" y="45" width="9" height="9"/><rect class="cls-2" x="198" y="45" width="9" height="9"/><rect class="cls-2" x="189" y="54" width="9" height="9"/><rect class="cls-2" x="198" y="54" width="9" height="9"/><rect class="cls-2" x="189" y="63" width="9" height="9"/><rect class="cls-2" x="198" y="63" width="9" height="9"/><rect class="cls-2" x="189" y="72" width="9" height="9"/><rect class="cls-2" x="198" y="72" width="9" height="9"/><rect class="cls-2" x="207" width="9" height="9"/><rect class="cls-2" x="216" width="9" height="9"/><rect class="cls-2" x="207" y="9" width="9" height="9"/><rect class="cls-2" x="216" y="9" width="9" height="9"/><rect class="cls-2" x="207" y="18" width="9" height="9"/><rect class="cls-2" x="216" y="18" width="9" height="9"/><rect class="cls-2" x="207" y="27" width="9" height="9"/><rect class="cls-2" x="216" y="27" width="9" height="9"/><rect class="cls-2" x="207" y="36" width="9" height="9"/><rect class="cls-2" x="216" y="36" width="9" height="9"/><rect class="cls-2" x="207" y="45" width="9" height="9"/><rect class="cls-2" x="216" y="45" width="9" height="9"/><rect class="cls-2" x="207" y="54" width="9" height="9"/><rect class="cls-2" x="216" y="54" width="9" height="9"/><rect class="cls-2" x="207" y="63" width="9" height="9"/><rect class="cls-2" x="216" y="63" width="9" height="9"/><rect class="cls-2" x="207" y="72" width="9" height="9"/><rect class="cls-2" x="216" y="72" width="9" height="9"/><rect class="cls-2" x="225" width="9" height="9"/><rect class="cls-2" x="234" width="9" height="9"/><rect class="cls-2" x="225" y="9" width="9" height="9"/><rect class="cls-2" x="234" y="9" width="9" height="9"/><rect class="cls-2" x="225" y="18" width="9" height="9"/><rect class="cls-2" x="234" y="18" width="9" height="9"/><rect class="cls-2" x="225" y="27" width="9" height="9"/><rect class="cls-2" x="234" y="27" width="9" height="9"/><rect class="cls-2" x="225" y="36" width="9" height="9"/><rect class="cls-2" x="234" y="36" width="9" height="9"/><rect class="cls-2" x="225" y="45" width="9" height="9"/><rect class="cls-2" x="234" y="45" width="9" height="9"/><rect class="cls-2" x="225" y="54" width="9" height="9"/><rect class="cls-2" x="234" y="54" width="9" height="9"/><rect class="cls-2" x="225" y="63" width="9" height="9"/><rect class="cls-2" x="234" y="63" width="9" height="9"/><rect class="cls-2" x="225" y="72" width="9" height="9"/><rect class="cls-2" x="234" y="72" width="9" height="9"/><rect class="cls-2" x="243" width="9" height="9"/><rect class="cls-2" x="252" width="9" height="9"/><rect class="cls-2" x="243" y="9" width="9" height="9"/><rect class="cls-2" x="252" y="9" width="9" height="9"/><rect class="cls-2" x="243" y="18" width="9" height="9"/><rect class="cls-2" x="252" y="18" width="9" height="9"/><rect class="cls-2" x="243" y="27" width="9" height="9"/><rect class="cls-2" x="252" y="27" width="9" height="9"/><rect class="cls-2" x="243" y="36" width="9" height="9"/><rect class="cls-2" x="252" y="36" width="9" height="9"/><rect class="cls-2" x="243" y="45" width="9" height="9"/><rect class="cls-2" x="252" y="45" width="9" height="9"/><rect class="cls-2" x="243" y="54" width="9" height="9"/><rect class="cls-2" x="252" y="54" width="9" height="9"/><rect class="cls-2" x="243" y="63" width="9" height="9"/><rect class="cls-2" x="252" y="63" width="9" height="9"/><rect class="cls-2" x="243" y="72" width="9" height="9"/><rect class="cls-2" x="252" y="72" width="9" height="9"/><rect class="cls-2" x="261" width="9" height="9"/><rect class="cls-2" x="270" width="9" height="9"/><rect class="cls-2" x="261" y="9" width="9" height="9"/><rect class="cls-2" x="270" y="9" width="9" height="9"/><rect class="cls-2" x="261" y="18" width="9" height="9"/><rect class="cls-2" x="270" y="18" width="9" height="9"/><rect class="cls-2" x="261" y="27" width="9" height="9"/><rect class="cls-2" x="270" y="27" width="9" height="9"/><rect class="cls-2" x="261" y="36" width="9" height="9"/><rect class="cls-2" x="270" y="36" width="9" height="9"/><rect class="cls-2" x="261" y="45" width="9" height="9"/><rect class="cls-2" x="270" y="45" width="9" height="9"/><rect class="cls-2" x="261" y="54" width="9" height="9"/><rect class="cls-2" x="270" y="54" width="9" height="9"/><rect class="cls-2" x="261" y="63" width="9" height="9"/><rect class="cls-2" x="270" y="63" width="9" height="9"/><rect class="cls-2" x="261" y="72" width="9" height="9"/><rect class="cls-2" x="270" y="72" width="9" height="9"/><rect class="cls-2" x="279" width="9" height="9"/><rect class="cls-2" x="288" width="9" height="9"/><rect class="cls-2" x="279" y="9" width="9" height="9"/><rect class="cls-2" x="288" y="9" width="9" height="9"/><rect class="cls-2" x="279" y="18" width="9" height="9"/><rect class="cls-2" x="288" y="18" width="9" height="9"/><rect class="cls-2" x="279" y="27" width="9" height="9"/><rect class="cls-2" x="288" y="27" width="9" height="9"/><rect class="cls-2" x="279" y="36" width="9" height="9"/><rect class="cls-2" x="288" y="36" width="9" height="9"/><rect class="cls-2" x="279" y="45" width="9" height="9"/><rect class="cls-2" x="288" y="45" width="9" height="9"/><rect class="cls-2" x="279" y="54" width="9" height="9"/><rect class="cls-2" x="288" y="54" width="9" height="9"/><rect class="cls-2" x="279" y="63" width="9" height="9"/><rect class="cls-2" x="288" y="63" width="9" height="9"/><rect class="cls-2" x="279" y="72" width="9" height="9"/><rect class="cls-2" x="288" y="72" width="9" height="9"/><rect class="cls-2" x="297" width="9" height="9"/><rect class="cls-2" x="306" width="9" height="9"/><rect class="cls-2" x="297" y="9" width="9" height="9"/><rect class="cls-2" x="306" y="9" width="9" height="9"/><rect class="cls-2" x="297" y="18" width="9" height="9"/><rect class="cls-2" x="306" y="18" width="9" height="9"/><rect class="cls-2" x="297" y="27" width="9" height="9"/><rect class="cls-2" x="306" y="27" width="9" height="9"/><rect class="cls-2" x="297" y="36" width="9" height="9"/><rect class="cls-2" x="306" y="36" width="9" height="9"/><rect class="cls-2" x="297" y="45" width="9" height="9"/><rect class="cls-2" x="306" y="45" width="9" height="9"/><rect class="cls-2" x="297" y="54" width="9" height="9"/><rect class="cls-2" x="306" y="54" width="9" height="9"/><rect class="cls-2" x="297" y="63" width="9" height="9"/><rect class="cls-2" x="306" y="63" width="9" height="9"/><rect class="cls-2" x="297" y="72" width="9" height="9"/><rect class="cls-2" x="306" y="72" width="9" height="9"/><rect class="cls-2" x="315" width="9" height="9"/><rect class="cls-2" x="324" width="9" height="9"/><rect class="cls-2" x="315" y="9" width="9" height="9"/><rect class="cls-2" x="324" y="9" width="9" height="9"/><rect class="cls-2" x="315" y="18" width="9" height="9"/><rect class="cls-2" x="324" y="18" width="9" height="9"/><rect class="cls-2" x="315" y="27" width="9" height="9"/><rect class="cls-2" x="324" y="27" width="9" height="9"/><rect class="cls-2" x="315" y="36" width="9" height="9"/><rect class="cls-2" x="324" y="36" width="9" height="9"/><rect class="cls-2" x="315" y="45" width="9" height="9"/><rect class="cls-2" x="324" y="45" width="9" height="9"/><rect class="cls-2" x="315" y="54" width="9" height="9"/><rect class="cls-2" x="324" y="54" width="9" height="9"/><rect class="cls-2" x="315" y="63" width="9" height="9"/><rect class="cls-2" x="324" y="63" width="9" height="9"/><rect class="cls-2" x="315" y="72" width="9" height="9"/><rect class="cls-2" x="324" y="72" width="9" height="9"/><rect class="cls-2" x="333" width="9" height="9"/><rect class="cls-2" x="342" width="9" height="9"/><rect class="cls-2" x="333" y="9" width="9" height="9"/><rect class="cls-2" x="342" y="9" width="9" height="9"/><rect class="cls-2" x="333" y="18" width="9" height="9"/><rect class="cls-2" x="342" y="18" width="9" height="9"/><rect class="cls-2" x="333" y="27" width="9" height="9"/><rect class="cls-2" x="342" y="27" width="9" height="9"/><rect class="cls-2" x="333" y="36" width="9" height="9"/><rect class="cls-2" x="342" y="36" width="9" height="9"/><rect class="cls-2" x="333" y="45" width="9" height="9"/><rect class="cls-2" x="342" y="45" width="9" height="9"/><rect class="cls-2" x="333" y="54" width="9" height="9"/><rect class="cls-2" x="342" y="54" width="9" height="9"/><rect class="cls-2" x="333" y="63" width="9" height="9"/><rect class="cls-2" x="342" y="63" width="9" height="9"/><rect class="cls-2" x="333" y="72" width="9" height="9"/><rect class="cls-2" x="342" y="72" width="9" height="9"/><rect class="cls-2" x="351" width="9" height="9"/><rect class="cls-2" x="360" width="9" height="9"/><rect class="cls-2" x="351" y="9" width="9" height="9"/><rect class="cls-2" x="360" y="9" width="9" height="9"/><rect class="cls-2" x="351" y="18" width="9" height="9"/><rect class="cls-2" x="360" y="18" width="9" height="9"/><rect class="cls-2" x="351" y="27" width="9" height="9"/><rect class="cls-2" x="360" y="27" width="9" height="9"/><rect class="cls-2" x="351" y="36" width="9" height="9"/><rect class="cls-2" x="360" y="36" width="9" height="9"/><rect class="cls-2" x="351" y="45" width="9" height="9"/><rect class="cls-2" x="360" y="45" width="9" height="9"/><rect class="cls-2" x="351" y="54" width="9" height="9"/><rect class="cls-2" x="360" y="54" width="9" height="9"/><rect class="cls-2" x="351" y="63" width="9" height="9"/><rect class="cls-2" x="360" y="63" width="9" height="9"/><rect class="cls-2" x="351" y="72" width="9" height="9"/><rect class="cls-2" x="360" y="72" width="9" height="9"/><rect class="cls-2" x="369" width="9" height="9"/><rect class="cls-2" x="378" width="9" height="9"/><rect class="cls-2" x="369" y="9" width="9" height="9"/><rect class="cls-2" x="378" y="9" width="9" height="9"/><rect class="cls-2" x="369" y="18" width="9" height="9"/><rect class="cls-2" x="378" y="18" width="9" height="9"/><rect class="cls-2" x="369" y="27" width="9" height="9"/><rect class="cls-2" x="378" y="27" width="9" height="9"/><rect class="cls-2" x="369" y="36" width="9" height="9"/><rect class="cls-2" x="378" y="36" width="9" height="9"/><rect class="cls-2" x="369" y="45" width="9" height="9"/><rect class="cls-2" x="378" y="45" width="9" height="9"/><rect class="cls-2" x="369" y="54" width="9" height="9"/><rect class="cls-2" x="378" y="54" width="9" height="9"/><rect class="cls-2" x="369" y="63" width="9" height="9"/><rect class="cls-2" x="378" y="63" width="9" height="9"/><rect class="cls-2" x="369" y="72" width="9" height="9"/><rect class="cls-2" x="378" y="72" width="9" height="9"/><rect class="cls-2" x="387" width="9" height="9"/><rect class="cls-2" x="396" width="9" height="9"/><rect class="cls-2" x="387" y="9" width="9" height="9"/><rect class="cls-2" x="396" y="9" width="9" height="9"/><rect class="cls-2" x="387" y="18" width="9" height="9"/><rect class="cls-2" x="396" y="18" width="9" height="9"/><rect class="cls-2" x="387" y="27" width="9" height="9"/><rect class="cls-2" x="396" y="27" width="9" height="9"/><rect class="cls-2" x="387" y="36" width="9" height="9"/><rect class="cls-2" x="396" y="36" width="9" height="9"/><rect class="cls-2" x="387" y="45" width="9" height="9"/><rect class="cls-2" x="396" y="45" width="9" height="9"/><rect class="cls-2" x="387" y="54" width="9" height="9"/><rect class="cls-2" x="396" y="54" width="9" height="9"/><rect class="cls-2" x="387" y="63" width="9" height="9"/><rect class="cls-2" x="396" y="63" width="9" height="9"/><rect class="cls-2" x="387" y="72" width="9" height="9"/><rect class="cls-2" x="396" y="72" width="9" height="9"/><rect class="cls-2" x="405" width="9" height="9"/><rect class="cls-2" x="414" width="9" height="9"/><rect class="cls-2" x="405" y="9" width="9" height="9"/><rect class="cls-2" x="414" y="9" width="9" height="9"/><rect class="cls-2" x="405" y="18" width="9" height="9"/><rect class="cls-2" x="414" y="18" width="9" height="9"/><rect class="cls-2" x="405" y="27" width="9" height="9"/><rect class="cls-2" x="414" y="27" width="9" height="9"/><rect class="cls-2" x="405" y="36" width="9" height="9"/><rect class="cls-2" x="414" y="36" width="9" height="9"/><rect class="cls-2" x="405" y="45" width="9" height="9"/><rect class="cls-2" x="414" y="45" width="9" height="9"/><rect class="cls-2" x="405" y="54" width="9" height="9"/><rect class="cls-2" x="414" y="54" width="9" height="9"/><rect class="cls-2" x="405" y="63" width="9" height="9"/><rect class="cls-2" x="414" y="63" width="9" height="9"/><rect class="cls-2" x="405" y="72" width="9" height="9"/><rect class="cls-2" x="414" y="72" width="9" height="9"/><rect class="cls-2" x="423" width="9" height="9"/><rect class="cls-2" x="432" width="9" height="9"/><rect class="cls-2" x="423" y="9" width="9" height="9"/><rect class="cls-2" x="432" y="9" width="9" height="9"/><rect class="cls-2" x="423" y="18" width="9" height="9"/><rect class="cls-2" x="432" y="18" width="9" height="9"/><rect class="cls-2" x="423" y="27" width="9" height="9"/><rect class="cls-2" x="432" y="27" width="9" height="9"/><rect class="cls-2" x="423" y="36" width="9" height="9"/><rect class="cls-2" x="432" y="36" width="9" height="9"/><rect class="cls-2" x="423" y="45" width="9" height="9"/><rect class="cls-2" x="432" y="45" width="9" height="9"/><rect class="cls-2" x="423" y="54" width="9" height="9"/><rect class="cls-2" x="432" y="54" width="9" height="9"/><rect class="cls-2" x="423" y="63" width="9" height="9"/><rect class="cls-2" x="432" y="63" width="9" height="9"/><rect class="cls-2" x="423" y="72" width="9" height="9"/><rect class="cls-2" x="432" y="72" width="9" height="9"/><rect class="cls-2" x="441" width="9" height="9"/><rect class="cls-2" x="450" width="9" height="9"/><rect class="cls-2" x="441" y="9" width="9" height="9"/><rect class="cls-2" x="450" y="9" width="9" height="9"/><rect class="cls-2" x="441" y="18" width="9" height="9"/><rect class="cls-2" x="450" y="18" width="9" height="9"/><rect class="cls-2" x="441" y="27" width="9" height="9"/><rect class="cls-2" x="450" y="27" width="9" height="9"/><rect class="cls-2" x="441" y="36" width="9" height="9"/><rect class="cls-2" x="450" y="36" width="9" height="9"/><rect class="cls-2" x="441" y="45" width="9" height="9"/><rect class="cls-2" x="450" y="45" width="9" height="9"/><rect class="cls-2" x="441" y="54" width="9" height="9"/><rect class="cls-2" x="450" y="54" width="9" height="9"/><rect class="cls-2" x="441" y="63" width="9" height="9"/><rect class="cls-2" x="450" y="63" width="9" height="9"/><rect class="cls-2" x="441" y="72" width="9" height="9"/><rect class="cls-2" x="450" y="72" width="9" height="9"/><rect class="cls-2" x="459" width="9" height="9"/><rect class="cls-2" x="468" width="9" height="9"/><rect class="cls-2" x="459" y="9" width="9" height="9"/><rect class="cls-2" x="468" y="9" width="9" height="9"/><rect class="cls-2" x="459" y="18" width="9" height="9"/><rect class="cls-2" x="468" y="18" width="9" height="9"/><rect class="cls-2" x="459" y="27" width="9" height="9"/><rect class="cls-2" x="468" y="27" width="9" height="9"/><rect class="cls-2" x="459" y="36" width="9" height="9"/><rect class="cls-2" x="468" y="36" width="9" height="9"/><rect class="cls-2" x="459" y="45" width="9" height="9"/><rect class="cls-2" x="468" y="45" width="9" height="9"/><rect class="cls-2" x="459" y="54" width="9" height="9"/><rect class="cls-2" x="468" y="54" width="9" height="9"/><rect class="cls-2" x="459" y="63" width="9" height="9"/><rect class="cls-2" x="468" y="63" width="9" height="9"/><rect class="cls-2" x="459" y="72" width="9" height="9"/><rect class="cls-2" x="468" y="72" width="9" height="9"/><rect class="cls-2" x="477" width="9" height="9"/><rect class="cls-2" x="486" width="9" height="9"/><rect class="cls-2" x="477" y="9" width="9" height="9"/><rect class="cls-2" x="486" y="9" width="9" height="9"/><rect class="cls-2" x="477" y="18" width="9" height="9"/><rect class="cls-2" x="486" y="18" width="9" height="9"/><rect class="cls-2" x="477" y="27" width="9" height="9"/><rect class="cls-2" x="486" y="27" width="9" height="9"/><rect class="cls-2" x="477" y="36" width="9" height="9"/><rect class="cls-2" x="486" y="36" width="9" height="9"/><rect class="cls-2" x="477" y="45" width="9" height="9"/><rect class="cls-2" x="486" y="45" width="9" height="9"/><rect class="cls-2" x="477" y="54" width="9" height="9"/><rect class="cls-2" x="486" y="54" width="9" height="9"/><rect class="cls-2" x="477" y="63" width="9" height="9"/><rect class="cls-2" x="486" y="63" width="9" height="9"/><rect class="cls-2" x="477" y="72" width="9" height="9"/><rect class="cls-2" x="486" y="72" width="9" height="9"/><rect class="cls-2" x="495" width="9" height="9"/><rect class="cls-2" x="495" y="9" width="9" height="9"/><rect class="cls-2" x="495" y="18" width="9" height="9"/><rect class="cls-2" x="495" y="27" width="9" height="9"/><rect class="cls-2" x="495" y="36" width="9" height="9"/><rect class="cls-2" x="495" y="45" width="9" height="9"/><rect class="cls-2" x="495" y="54" width="9" height="9"/><rect class="cls-2" x="495" y="63" width="9" height="9"/><rect class="cls-2" x="495" y="72" width="9" height="9"/><rect class="cls-2" x="504" width="9" height="9"/><rect class="cls-2" x="513" width="9" height="9"/><rect class="cls-2" x="504" y="9" width="9" height="9"/><rect class="cls-2" x="513" y="9" width="9" height="9"/><rect class="cls-2" x="504" y="18" width="9" height="9"/><rect class="cls-2" x="513" y="18" width="9" height="9"/><rect class="cls-2" x="504" y="27" width="9" height="9"/><rect class="cls-2" x="513" y="27" width="9" height="9"/><rect class="cls-2" x="504" y="36" width="9" height="9"/><rect class="cls-2" x="513" y="36" width="9" height="9"/><rect class="cls-2" x="504" y="45" width="9" height="9"/><rect class="cls-2" x="513" y="45" width="9" height="9"/><rect class="cls-2" x="504" y="54" width="9" height="9"/><rect class="cls-2" x="513" y="54" width="9" height="9"/><rect class="cls-2" x="504" y="63" width="9" height="9"/><rect class="cls-2" x="513" y="63" width="9" height="9"/><rect class="cls-2" x="504" y="72" width="9" height="9"/><rect class="cls-2" x="513" y="72" width="9" height="9"/><rect class="cls-2" x="522" width="9" height="9"/><rect class="cls-2" x="531" width="9" height="9"/><rect class="cls-2" x="522" y="9" width="9" height="9"/><rect class="cls-2" x="531" y="9" width="9" height="9"/><rect class="cls-2" x="522" y="18" width="9" height="9"/><rect class="cls-2" x="531" y="18" width="9" height="9"/><rect class="cls-2" x="522" y="27" width="9" height="9"/><rect class="cls-2" x="531" y="27" width="9" height="9"/><rect class="cls-2" x="522" y="36" width="9" height="9"/><rect class="cls-2" x="531" y="36" width="9" height="9"/><rect class="cls-2" x="522" y="45" width="9" height="9"/><rect class="cls-2" x="531" y="45" width="9" height="9"/><rect class="cls-2" x="522" y="54" width="9" height="9"/><rect class="cls-2" x="531" y="54" width="9" height="9"/><rect class="cls-2" x="522" y="63" width="9" height="9"/><rect class="cls-2" x="531" y="63" width="9" height="9"/><rect class="cls-2" x="522" y="72" width="9" height="9"/><rect class="cls-2" x="531" y="72" width="9" height="9"/><rect class="cls-2" x="540" width="9" height="9"/><rect class="cls-2" x="549" width="9" height="9"/><rect class="cls-2" x="540" y="9" width="9" height="9"/><rect class="cls-2" x="549" y="9" width="9" height="9"/><rect class="cls-2" x="540" y="18" width="9" height="9"/><rect class="cls-2" x="549" y="18" width="9" height="9"/><rect class="cls-2" x="540" y="27" width="9" height="9"/><rect class="cls-2" x="549" y="27" width="9" height="9"/><rect class="cls-2" x="540" y="36" width="9" height="9"/><rect class="cls-2" x="549" y="36" width="9" height="9"/><rect class="cls-2" x="540" y="45" width="9" height="9"/><rect class="cls-2" x="549" y="45" width="9" height="9"/><rect class="cls-2" x="540" y="54" width="9" height="9"/><rect class="cls-2" x="549" y="54" width="9" height="9"/><rect class="cls-2" x="540" y="63" width="9" height="9"/><rect class="cls-2" x="549" y="63" width="9" height="9"/><rect class="cls-2" x="540" y="72" width="9" height="9"/><rect class="cls-2" x="549" y="72" width="9" height="9"/><rect class="cls-2" x="558" width="9" height="9"/><rect class="cls-2" x="567" width="9" height="9"/><rect class="cls-2" x="558" y="9" width="9" height="9"/><rect class="cls-2" x="567" y="9" width="9" height="9"/><rect class="cls-2" x="558" y="18" width="9" height="9"/><rect class="cls-2" x="567" y="18" width="9" height="9"/><rect class="cls-2" x="558" y="27" width="9" height="9"/><rect class="cls-2" x="567" y="27" width="9" height="9"/><rect class="cls-2" x="558" y="36" width="9" height="9"/><rect class="cls-2" x="567" y="36" width="9" height="9"/><rect class="cls-2" x="558" y="45" width="9" height="9"/><rect class="cls-2" x="567" y="45" width="9" height="9"/><rect class="cls-2" x="576" width="9" height="9"/><rect class="cls-2" x="576" y="9" width="9" height="9"/><rect class="cls-2" x="576" y="18" width="9" height="9"/><rect class="cls-2" x="576" y="27" width="9" height="9"/><rect class="cls-2" x="576" y="36" width="9" height="9"/><rect class="cls-2" x="576" y="45" width="9" height="9"/><rect class="cls-2" x="558" y="54" width="9" height="9"/><rect class="cls-2" x="567" y="54" width="9" height="9"/><rect class="cls-2" x="558" y="63" width="9" height="9"/><rect class="cls-2" x="567" y="63" width="9" height="9"/><rect class="cls-2" x="558" y="72" width="9" height="9"/><rect class="cls-2" x="567" y="72" width="9" height="9"/><rect class="cls-3" x="585" y="90" width="9" height="9"/><rect class="cls-3" x="72" y="90" width="9" height="9"/><rect class="cls-3" x="63" y="90" width="9" height="9"/><rect class="cls-3" x="54" y="90" width="9" height="9"/><rect class="cls-3" x="45" y="90" width="9" height="9"/><rect class="cls-3" x="36" y="90" width="9" height="9"/><rect class="cls-3" x="27" y="90" width="9" height="9"/><rect class="cls-3" x="18" y="90" width="9" height="9"/><rect class="cls-3" x="9" y="90" width="9" height="9"/><rect class="cls-3" x="567" y="72" width="9" height="9"/><rect class="cls-3" x="576" y="72" width="9" height="9"/><rect class="cls-3" x="576" y="63" width="9" height="9"/><rect class="cls-3" x="576" y="54" width="9" height="9"/><rect class="cls-3" x="72" y="99" width="9" height="9"/><rect class="cls-3" x="63" y="99" width="9" height="9"/><rect class="cls-3" x="54" y="99" width="9" height="9"/><rect class="cls-3" x="45" y="99" width="9" height="9"/><rect class="cls-3" x="36" y="99" width="9" height="9"/><rect class="cls-3" x="27" y="99" width="9" height="9"/><rect class="cls-3" x="18" y="99" width="9" height="9"/><rect class="cls-3" x="9" y="99" width="9" height="9"/><rect class="cls-3" x="144" y="90" width="9" height="9"/><rect class="cls-3" x="135" y="90" width="9" height="9"/><rect class="cls-3" x="126" y="90" width="9" height="9"/><rect class="cls-3" x="117" y="90" width="9" height="9"/><rect class="cls-3" x="108" y="90" width="9" height="9"/><rect class="cls-3" x="99" y="90" width="9" height="9"/><rect class="cls-3" x="90" y="90" width="9" height="9"/><rect class="cls-3" x="81" y="90" width="9" height="9"/><rect class="cls-3" x="144" y="99" width="9" height="9"/><rect class="cls-3" x="135" y="99" width="9" height="9"/><rect class="cls-3" x="126" y="99" width="9" height="9"/><rect class="cls-3" x="117" y="99" width="9" height="9"/><rect class="cls-3" x="108" y="99" width="9" height="9"/><rect class="cls-3" x="99" y="99" width="9" height="9"/><rect class="cls-3" x="90" y="99" width="9" height="9"/><rect class="cls-3" x="81" y="99" width="9" height="9"/><rect class="cls-3" x="216" y="90" width="9" height="9"/><rect class="cls-3" x="207" y="90" width="9" height="9"/><rect class="cls-3" x="198" y="90" width="9" height="9"/><rect class="cls-3" x="189" y="90" width="9" height="9"/><rect class="cls-3" x="180" y="90" width="9" height="9"/><rect class="cls-3" x="171" y="90" width="9" height="9"/><rect class="cls-3" x="162" y="90" width="9" height="9"/><rect class="cls-3" x="153" y="90" width="9" height="9"/><rect class="cls-3" x="216" y="99" width="9" height="9"/><rect class="cls-3" x="207" y="99" width="9" height="9"/><rect class="cls-3" x="198" y="99" width="9" height="9"/><rect class="cls-3" x="189" y="99" width="9" height="9"/><rect class="cls-3" x="180" y="99" width="9" height="9"/><rect class="cls-3" x="171" y="99" width="9" height="9"/><rect class="cls-3" x="162" y="99" width="9" height="9"/><rect class="cls-3" x="153" y="99" width="9" height="9"/><rect class="cls-3" x="288" y="90" width="9" height="9"/><rect class="cls-3" x="279" y="90" width="9" height="9"/><rect class="cls-3" x="270" y="90" width="9" height="9"/><rect class="cls-3" x="261" y="90" width="9" height="9"/><rect class="cls-3" x="252" y="90" width="9" height="9"/><rect class="cls-3" x="243" y="90" width="9" height="9"/><rect class="cls-3" x="234" y="90" width="9" height="9"/><rect class="cls-3" x="225" y="90" width="9" height="9"/><rect class="cls-3" x="288" y="99" width="9" height="9"/><rect class="cls-3" x="279" y="99" width="9" height="9"/><rect class="cls-3" x="270" y="99" width="9" height="9"/><rect class="cls-3" x="261" y="99" width="9" height="9"/><rect class="cls-3" x="252" y="99" width="9" height="9"/><rect class="cls-3" x="243" y="99" width="9" height="9"/><rect class="cls-3" x="234" y="99" width="9" height="9"/><rect class="cls-3" x="225" y="99" width="9" height="9"/><rect class="cls-3" x="360" y="90" width="9" height="9"/><rect class="cls-3" x="351" y="90" width="9" height="9"/><rect class="cls-3" x="342" y="90" width="9" height="9"/><rect class="cls-3" x="333" y="90" width="9" height="9"/><rect class="cls-3" x="324" y="90" width="9" height="9"/><rect class="cls-3" x="315" y="90" width="9" height="9"/><rect class="cls-3" x="306" y="90" width="9" height="9"/><rect class="cls-3" x="297" y="90" width="9" height="9"/><rect class="cls-3" x="360" y="99" width="9" height="9"/><rect class="cls-3" x="351" y="99" width="9" height="9"/><rect class="cls-3" x="342" y="99" width="9" height="9"/><rect class="cls-3" x="333" y="99" width="9" height="9"/><rect class="cls-3" x="324" y="99" width="9" height="9"/><rect class="cls-3" x="315" y="99" width="9" height="9"/><rect class="cls-3" x="306" y="99" width="9" height="9"/><rect class="cls-3" x="297" y="99" width="9" height="9"/><rect class="cls-3" x="432" y="90" width="9" height="9"/><rect class="cls-3" x="423" y="90" width="9" height="9"/><rect class="cls-3" x="414" y="90" width="9" height="9"/><rect class="cls-3" x="405" y="90" width="9" height="9"/><rect class="cls-3" x="396" y="90" width="9" height="9"/><rect class="cls-3" x="387" y="90" width="9" height="9"/><rect class="cls-3" x="378" y="90" width="9" height="9"/><rect class="cls-3" x="369" y="90" width="9" height="9"/><rect class="cls-3" x="432" y="99" width="9" height="9"/><rect class="cls-3" x="423" y="99" width="9" height="9"/><rect class="cls-3" x="414" y="99" width="9" height="9"/><rect class="cls-3" x="405" y="99" width="9" height="9"/><rect class="cls-3" x="396" y="99" width="9" height="9"/><rect class="cls-3" x="387" y="99" width="9" height="9"/><rect class="cls-3" x="378" y="99" width="9" height="9"/><rect class="cls-3" x="369" y="99" width="9" height="9"/><rect class="cls-3" x="504" y="90" width="9" height="9"/><rect class="cls-3" x="495" y="90" width="9" height="9"/><rect class="cls-3" x="486" y="90" width="9" height="9"/><rect class="cls-3" x="477" y="90" width="9" height="9"/><rect class="cls-3" x="468" y="90" width="9" height="9"/><rect class="cls-3" x="459" y="90" width="9" height="9"/><rect class="cls-3" x="450" y="90" width="9" height="9"/><rect class="cls-3" x="441" y="90" width="9" height="9"/><rect class="cls-3" x="504" y="99" width="9" height="9"/><rect class="cls-3" x="495" y="99" width="9" height="9"/><rect class="cls-3" x="486" y="99" width="9" height="9"/><rect class="cls-3" x="477" y="99" width="9" height="9"/><rect class="cls-3" x="468" y="99" width="9" height="9"/><rect class="cls-3" x="459" y="99" width="9" height="9"/><rect class="cls-3" x="450" y="99" width="9" height="9"/><rect class="cls-3" x="441" y="99" width="9" height="9"/><rect class="cls-3" x="576" y="90" width="9" height="9"/><rect class="cls-3" x="567" y="90" width="9" height="9"/><rect class="cls-3" x="558" y="90" width="9" height="9"/><rect class="cls-3" x="549" y="90" width="9" height="9"/><rect class="cls-3" x="540" y="90" width="9" height="9"/><rect class="cls-3" x="531" y="90" width="9" height="9"/><rect class="cls-3" x="522" y="90" width="9" height="9"/><rect class="cls-3" x="513" y="90" width="9" height="9"/><rect class="cls-3" x="576" y="99" width="9" height="9"/><rect class="cls-3" x="567" y="99" width="9" height="9"/><rect class="cls-3" x="558" y="99" width="9" height="9"/><rect class="cls-3" x="540" y="99" width="9" height="9"/><rect class="cls-3" x="549" y="99" width="9" height="9"/><rect class="cls-3" x="531" y="99" width="9" height="9"/><rect class="cls-3" x="522" y="99" width="9" height="9"/><rect class="cls-3" x="513" y="99" width="9" height="9"/><rect class="cls-3" y="90" width="9" height="9"/><rect class="cls-3" y="81" width="9" height="9"/><rect class="cls-3" x="585" y="81" width="9" height="9"/></g></g></svg>