<svg xmlns="http://www.w3.org/2000/svg" viewBox="0 0 108 108"><defs><style>.cls-1{fill:#ccc;}.cls-2{fill:#e6e6e6;}.cls-3{fill:#b3b3b3;}.cls-4{fill:gray;}</style></defs><g id="Layer_2" data-name="Layer 2"><g id="Layer_1-2" data-name="Layer 1"><rect class="cls-1" x="9" y="81" width="9" height="9"/><rect class="cls-1" y="72" width="9" height="9"/><rect class="cls-1" x="18" y="81" width="9" height="9"/><rect class="cls-1" x="27" y="81" width="9" height="9"/><rect class="cls-1" x="36" y="81" width="9" height="9"/><rect class="cls-1" x="45" y="81" width="9" height="9"/><rect class="cls-1" x="54" y="81" width="9" height="9"/><rect class="cls-1" x="63" y="81" width="9" height="9"/><rect class="cls-1" x="72" y="81" width="9" height="9"/><rect class="cls-1" x="81" y="81" width="9" height="9"/><rect class="cls-1" x="90" y="81" width="9" height="9"/><rect class="cls-1" x="99" y="72" width="9" height="9"/><rect class="cls-1" x="99" y="63" width="9" height="9"/><rect class="cls-1" x="99" y="54" width="9" height="9"/><rect class="cls-1" x="99" y="45" width="9" height="9"/><rect class="cls-1" x="99" y="36" width="9" height="9"/><rect class="cls-1" x="99" y="27" width="9" height="9"/><rect class="cls-1" x="99" y="18" width="9" height="9"/><rect class="cls-1" x="99" y="9" width="9" height="9"/><rect class="cls-2" x="9" width="9" height="9"/><rect class="cls-2" x="18" width="9" height="9"/><rect class="cls-2" x="27" width="9" height="9"/><rect class="cls-2" x="36" width="9" height="9"/><rect class="cls-2" x="45" width="9" height="9"/><rect class="cls-2" x="54" width="9" height="9"/><rect class="cls-2" x="63" width="9" height="9"/><rect class="cls-2" x="72" width="9" height="9"/><rect class="cls-2" x="81" width="9" height="9"/><rect class="cls-2" x="90" width="9" height="9"/><rect class="cls-2" x="9" y="9" width="9" height="9"/><rect class="cls-2" x="18" y="9" width="9" height="9"/><rect class="cls-2" x="27" y="9" width="9" height="9"/><rect class="cls-2" x="36" y="9" width="9" height="9"/><rect class="cls-2" x="45" y="9" width="9" height="9"/><rect class="cls-2" x="54" y="9" width="9" height="9"/><rect class="cls-2" x="63" y="9" width="9" height="9"/><rect class="cls-2" x="72" y="9" width="9" height="9"/><rect class="cls-2" x="81" y="9" width="9" height="9"/><rect class="cls-2" x="90" y="9" width="9" height="9"/><rect class="cls-2" x="9" y="18" width="9" height="9"/><rect class="cls-2" x="18" y="18" width="9" height="9"/><rect class="cls-2" x="27" y="18" width="9" height="9"/><rect class="cls-2" x="63" y="18" width="9" height="9"/><rect class="cls-2" x="72" y="18" width="9" height="9"/><rect class="cls-2" x="81" y="18" width="9" height="9"/><rect class="cls-2" x="90" y="18" width="9" height="9"/><rect class="cls-2" x="9" y="27" width="9" height="9"/><rect class="cls-2" x="18" y="27" width="9" height="9"/><rect class="cls-2" x="27" y="27" width="9" height="9"/><rect class="cls-2" x="45" y="27" width="9" height="9"/><rect class="cls-2" x="54" y="27" width="9" height="9"/><rect class="cls-2" x="72" y="27" width="9" height="9"/><rect class="cls-2" x="81" y="27" width="9" height="9"/><rect class="cls-2" x="90" y="27" width="9" height="9"/><rect class="cls-2" x="9" y="36" width="9" height="9"/><rect class="cls-2" x="18" y="36" width="9" height="9"/><rect class="cls-2" x="27" y="36" width="9" height="9"/><rect class="cls-2" x="45" y="36" width="9" height="9"/><rect class="cls-2" x="54" y="36" width="9" height="9"/><rect class="cls-2" x="72" y="36" width="9" height="9"/><rect class="cls-2" x="81" y="36" width="9" height="9"/><rect class="cls-2" x="90" y="36" width="9" height="9"/><rect class="cls-2" x="9" y="45" width="9" height="9"/><rect class="cls-2" x="18" y="45" width="9" height="9"/><rect class="cls-2" x="27" y="45" width="9" height="9"/><rect class="cls-2" x="45" y="45" width="9" height="9"/><rect class="cls-2" x="54" y="45" width="9" height="9"/><rect class="cls-2" x="72" y="45" width="9" height="9"/><rect class="cls-2" x="81" y="45" width="9" height="9"/><rect class="cls-2" x="9" y="54" width="9" height="9"/><rect class="cls-2" x="18" y="54" width="9" height="9"/><rect class="cls-2" x="27" y="54" width="9" height="9"/><rect class="cls-2" x="63" y="54" width="9" height="9"/><rect class="cls-2" x="72" y="54" width="9" height="9"/><rect class="cls-2" x="81" y="54" width="9" height="9"/><rect class="cls-2" x="9" y="63" width="9" height="9"/><rect class="cls-2" y="9" width="9" height="9"/><rect class="cls-2" y="18" width="9" height="9"/><rect class="cls-2" y="27" width="9" height="9"/><rect class="cls-2" y="36" width="9" height="9"/><rect class="cls-2" y="45" width="9" height="9"/><rect class="cls-2" y="54" width="9" height="9"/><rect class="cls-2" y="63" width="9" height="9"/><rect class="cls-2" x="18" y="63" width="9" height="9"/><rect class="cls-2" x="27" y="63" width="9" height="9"/><rect class="cls-2" x="36" y="63" width="9" height="9"/><rect class="cls-2" x="45" y="63" width="9" height="9"/><rect class="cls-2" x="54" y="63" width="9" height="9"/><rect class="cls-2" x="63" y="63" width="9" height="9"/><rect class="cls-2" x="72" y="63" width="9" height="9"/><rect class="cls-2" x="9" y="72" width="9" height="9"/><rect class="cls-2" x="18" y="72" width="9" height="9"/><rect class="cls-2" x="27" y="72" width="9" height="9"/><rect class="cls-2" x="36" y="72" width="9" height="9"/><rect class="cls-2" x="45" y="72" width="9" height="9"/><rect class="cls-2" x="54" y="72" width="9" height="9"/><rect class="cls-2" x="63" y="72" width="9" height="9"/><rect class="cls-2" x="72" y="72" width="9" height="9"/><rect class="cls-2" x="81" y="63" width="9" height="9"/><rect class="cls-2" x="90" y="45" width="9" height="9"/><rect class="cls-3" x="99" y="90" width="9" height="9"/><rect class="cls-3" x="90" y="90" width="9" height="9"/><rect class="cls-3" x="81" y="90" width="9" height="9"/><rect class="cls-3" x="72" y="90" width="9" height="9"/><rect class="cls-3" x="63" y="90" width="9" height="9"/><rect class="cls-3" x="54" y="90" width="9" height="9"/><rect class="cls-3" x="45" y="90" width="9" height="9"/><rect class="cls-3" x="36" y="90" width="9" height="9"/><rect class="cls-3" x="27" y="90" width="9" height="9"/><rect class="cls-3" x="18" y="90" width="9" height="9"/><rect class="cls-3" x="9" y="90" width="9" height="9"/><rect class="cls-3" x="81" y="72" width="9" height="9"/><rect class="cls-3" x="90" y="72" width="9" height="9"/><rect class="cls-3" x="90" y="63" width="9" height="9"/><rect class="cls-3" x="90" y="54" width="9" height="9"/><rect class="cls-3" x="90" y="99" width="9" height="9"/><rect class="cls-3" x="81" y="99" width="9" height="9"/><rect class="cls-3" x="72" y="99" width="9" height="9"/><rect class="cls-3" x="63" y="99" width="9" height="9"/><rect class="cls-3" x="54" y="99" width="9" height="9"/><rect class="cls-3" x="45" y="99" width="9" height="9"/><rect class="cls-3" x="36" y="99" width="9" height="9"/><rect class="cls-3" x="27" y="99" width="9" height="9"/><rect class="cls-3" x="18" y="99" width="9" height="9"/><rect class="cls-3" x="9" y="99" width="9" height="9"/><rect class="cls-3" y="90" width="9" height="9"/><rect class="cls-3" y="81" width="9" height="9"/><rect class="cls-3" x="99" y="81" width="9" height="9"/><rect class="cls-4" x="36" y="54" width="9" height="9"/><rect class="cls-4" x="45" y="54" width="9" height="9"/><rect class="cls-4" x="54" y="54" width="9" height="9"/><rect class="cls-4" x="36" y="36" width="9" height="9"/><rect class="cls-4" x="36" y="45" width="9" height="9"/><rect class="cls-4" x="36" y="27" width="9" height="9"/><rect class="cls-4" x="36" y="18" width="9" height="9"/><rect class="cls-4" x="45" y="18" width="9" height="9"/><rect class="cls-4" x="54" y="18" width="9" height="9"/><rect class="cls-4" x="63" y="27" width="9" height="9"/><rect class="cls-4" x="63" y="36" width="9" height="9"/><rect class="cls-4" x="63" y="45" width="9" height="9"/></g></g></svg>