<svg xmlns="http://www.w3.org/2000/svg" viewBox="0 0 230.55 166.51"><defs><style>.cls-1{fill:#7b6558;}.cls-2{fill:#f5754b;}.cls-3{fill:#9b2718;}</style></defs><g id="Layer_2" data-name="Layer 2"><g id="Medic"><g id="Rato"><g id="Cor"><rect class="cls-1" x="25.62" y="6.4" width="6.4" height="6.4"/><rect class="cls-1" x="32.02" y="6.4" width="6.4" height="6.4"/><rect class="cls-1" x="121.68" y="6.4" width="6.4" height="6.4"/><rect class="cls-1" x="128.08" y="6.4" width="6.4" height="6.4"/><rect class="cls-1" x="134.49" y="6.4" width="6.4" height="6.4"/><rect class="cls-1" x="140.89" y="6.4" width="6.4" height="6.4"/><rect class="cls-1" x="147.3" y="6.4" width="6.4" height="6.4"/><rect class="cls-1" x="153.7" y="6.4" width="6.4" height="6.4"/><rect class="cls-1" x="160.11" y="6.4" width="6.4" height="6.4"/><rect class="cls-2" x="19.21" y="12.81" width="6.4" height="6.4"/><rect class="cls-1" x="25.62" y="12.81" width="6.4" height="6.4"/><rect class="cls-1" x="32.02" y="12.81" width="6.4" height="6.4"/><rect class="cls-1" x="38.43" y="12.81" width="6.4" height="6.4"/><rect class="cls-1" x="89.66" y="12.81" width="6.4" height="6.4"/><rect class="cls-1" x="96.06" y="12.81" width="6.4" height="6.4"/><rect class="cls-1" x="108.87" y="12.81" width="6.4" height="6.4"/><rect class="cls-1" x="115.28" y="12.81" width="6.4" height="6.4"/><rect class="cls-1" x="121.68" y="12.81" width="6.4" height="6.4"/><rect class="cls-1" x="128.08" y="12.81" width="6.4" height="6.4"/><rect class="cls-1" x="134.49" y="12.81" width="6.4" height="6.4"/><rect class="cls-1" x="140.89" y="12.81" width="6.4" height="6.4"/><rect class="cls-1" x="147.3" y="12.81" width="6.4" height="6.4"/><rect class="cls-1" x="153.7" y="12.81" width="6.4" height="6.4"/><rect class="cls-1" x="160.11" y="12.81" width="6.4" height="6.4"/><rect class="cls-1" x="166.51" y="12.81" width="6.4" height="6.4"/><rect class="cls-2" x="19.21" y="19.21" width="6.4" height="6.4"/><rect class="cls-1" x="25.62" y="19.21" width="6.4" height="6.4"/><rect class="cls-1" x="32.02" y="19.21" width="6.4" height="6.4"/><rect class="cls-1" x="38.43" y="19.21" width="6.4" height="6.4"/><rect class="cls-1" x="44.83" y="19.21" width="6.4" height="6.4"/><rect class="cls-1" x="51.23" y="19.21" width="6.4" height="6.4"/><rect class="cls-1" x="57.64" y="19.21" width="6.4" height="6.4"/><rect class="cls-1" x="64.04" y="19.21" width="6.4" height="6.4"/><rect class="cls-1" x="70.45" y="19.21" width="6.4" height="6.4"/><rect class="cls-1" x="83.25" y="19.21" width="6.4" height="6.4"/><rect class="cls-2" x="102.47" y="19.21" width="6.4" height="6.4"/><rect class="cls-1" x="115.28" y="19.21" width="6.4" height="6.4"/><rect class="cls-1" x="121.68" y="19.21" width="6.4" height="6.4"/><rect class="cls-1" x="128.08" y="19.21" width="6.4" height="6.4"/><rect class="cls-1" x="134.49" y="19.21" width="6.4" height="6.4"/><rect class="cls-1" x="140.89" y="19.21" width="6.4" height="6.4"/><rect class="cls-1" x="147.3" y="19.21" width="6.4" height="6.4"/><rect class="cls-1" x="153.7" y="19.21" width="6.4" height="6.4"/><rect class="cls-1" x="160.11" y="19.21" width="6.4" height="6.4"/><rect class="cls-1" x="166.51" y="19.21" width="6.4" height="6.4"/><rect class="cls-1" x="172.91" y="19.21" width="6.4" height="6.4"/><rect class="cls-2" x="19.21" y="25.62" width="6.4" height="6.4"/><rect class="cls-2" x="25.62" y="25.62" width="6.4" height="6.4"/><rect class="cls-1" x="32.02" y="25.62" width="6.4" height="6.4"/><rect class="cls-1" x="38.43" y="25.62" width="6.4" height="6.4"/><rect class="cls-1" x="44.83" y="25.62" width="6.4" height="6.4"/><rect class="cls-1" x="51.23" y="25.62" width="6.4" height="6.4"/><rect class="cls-1" x="57.64" y="25.62" width="6.4" height="6.4"/><rect class="cls-1" x="64.04" y="25.62" width="6.4" height="6.4"/><rect class="cls-1" x="76.85" y="25.62" width="6.4" height="6.4"/><rect class="cls-2" x="89.66" y="25.62" width="6.4" height="6.4"/><rect class="cls-2" x="96.06" y="25.62" width="6.4" height="6.4"/><rect class="cls-2" x="102.47" y="25.62" width="6.4" height="6.4"/><rect class="cls-1" x="115.28" y="25.62" width="6.4" height="6.4"/><rect class="cls-1" x="121.68" y="25.62" width="6.4" height="6.4"/><rect class="cls-1" x="128.08" y="25.62" width="6.4" height="6.4"/><rect class="cls-1" x="134.49" y="25.62" width="6.4" height="6.4"/><rect class="cls-1" x="140.89" y="25.62" width="6.4" height="6.4"/><rect class="cls-1" x="147.3" y="25.62" width="6.4" height="6.4"/><rect class="cls-1" x="153.7" y="25.62" width="6.4" height="6.4"/><rect class="cls-1" x="160.11" y="25.62" width="6.4" height="6.4"/><rect class="cls-1" x="166.51" y="25.62" width="6.4" height="6.4"/><rect class="cls-1" x="172.91" y="25.62" width="6.4" height="6.4"/><rect class="cls-1" x="179.32" y="25.62" width="6.4" height="6.4"/><rect class="cls-2" x="19.21" y="32.02" width="6.4" height="6.4"/><rect class="cls-1" x="25.62" y="32.02" width="6.4" height="6.4"/><rect class="cls-1" x="32.02" y="32.02" width="6.4" height="6.4"/><rect class="cls-1" x="38.43" y="32.02" width="6.4" height="6.4"/><rect class="cls-1" x="44.83" y="32.02" width="6.4" height="6.4"/><rect class="cls-1" x="51.23" y="32.02" width="6.4" height="6.4"/><rect class="cls-1" x="57.64" y="32.02" width="6.4" height="6.4"/><rect class="cls-1" x="70.45" y="32.02" width="6.4" height="6.4"/><rect class="cls-2" x="83.25" y="32.02" width="6.4" height="6.4"/><rect class="cls-2" x="89.66" y="32.02" width="6.4" height="6.4"/><rect class="cls-2" x="96.06" y="32.02" width="6.4" height="6.4"/><rect class="cls-2" x="102.47" y="32.02" width="6.4" height="6.4"/><rect class="cls-1" x="115.28" y="32.02" width="6.4" height="6.4"/><rect class="cls-1" x="121.68" y="32.02" width="6.4" height="6.4"/><rect class="cls-1" x="128.08" y="32.02" width="6.4" height="6.4"/><rect class="cls-1" x="134.49" y="32.02" width="6.4" height="6.4"/><rect class="cls-1" x="140.89" y="32.02" width="6.4" height="6.4"/><rect class="cls-1" x="147.3" y="32.02" width="6.4" height="6.4"/><rect class="cls-1" x="153.7" y="32.02" width="6.4" height="6.4"/><rect class="cls-1" x="160.11" y="32.02" width="6.4" height="6.4"/><rect class="cls-1" x="166.51" y="32.02" width="6.4" height="6.4"/><rect class="cls-1" x="172.91" y="32.02" width="6.4" height="6.4"/><rect class="cls-1" x="179.32" y="32.02" width="6.4" height="6.4"/><rect class="cls-1" x="19.21" y="38.43" width="6.4" height="6.4"/><rect class="cls-1" x="25.62" y="38.43" width="6.4" height="6.4"/><rect class="cls-1" x="32.02" y="38.43" width="6.4" height="6.4"/><rect class="cls-1" x="38.43" y="38.43" width="6.4" height="6.4"/><rect class="cls-1" x="44.83" y="38.43" width="6.4" height="6.4"/><rect class="cls-1" x="51.23" y="38.43" width="6.4" height="6.4"/><rect class="cls-1" x="57.64" y="38.43" width="6.4" height="6.4"/><rect class="cls-1" x="64.04" y="38.43" width="6.4" height="6.4"/><rect class="cls-2" x="76.85" y="38.43" width="6.4" height="6.4"/><rect class="cls-2" x="83.25" y="38.43" width="6.4" height="6.4"/><rect class="cls-2" x="89.66" y="38.43" width="6.4" height="6.4"/><rect class="cls-2" x="96.06" y="38.43" width="6.4" height="6.4"/><rect class="cls-2" x="102.47" y="38.43" width="6.4" height="6.4"/><rect class="cls-1" x="115.28" y="38.43" width="6.4" height="6.4"/><rect class="cls-1" x="121.68" y="38.43" width="6.4" height="6.4"/><rect class="cls-1" x="128.08" y="38.43" width="6.4" height="6.4"/><rect class="cls-1" x="134.49" y="38.43" width="6.4" height="6.4"/><rect class="cls-1" x="140.89" y="38.43" width="6.4" height="6.4"/><rect class="cls-1" x="147.3" y="38.43" width="6.4" height="6.4"/><rect class="cls-1" x="153.7" y="38.43" width="6.4" height="6.4"/><rect class="cls-1" x="160.11" y="38.43" width="6.4" height="6.4"/><rect class="cls-1" x="166.51" y="38.43" width="6.4" height="6.4"/><rect class="cls-1" x="172.91" y="38.43" width="6.4" height="6.4"/><rect class="cls-1" x="179.32" y="38.43" width="6.4" height="6.4"/><rect class="cls-1" x="185.72" y="38.43" width="6.4" height="6.4"/><rect class="cls-1" x="12.81" y="44.83" width="6.4" height="6.4"/><rect class="cls-1" x="19.21" y="44.83" width="6.4" height="6.4"/><rect class="cls-1" x="25.62" y="44.83" width="6.4" height="6.4"/><rect class="cls-1" x="32.02" y="44.83" width="6.4" height="6.4"/><rect class="cls-1" x="38.43" y="44.83" width="6.4" height="6.4"/><rect class="cls-1" x="44.83" y="44.83" width="6.4" height="6.4"/><rect class="cls-1" x="51.23" y="44.83" width="6.4" height="6.4"/><rect class="cls-1" x="57.64" y="44.83" width="6.4" height="6.4"/><rect class="cls-1" x="64.04" y="44.83" width="6.4" height="6.4"/><rect class="cls-1" x="70.45" y="44.83" width="6.4" height="6.4"/><rect class="cls-2" x="83.25" y="44.83" width="6.4" height="6.4"/><rect class="cls-2" x="89.66" y="44.83" width="6.4" height="6.4"/><rect class="cls-1" x="108.87" y="44.83" width="6.4" height="6.4"/><rect class="cls-1" x="115.28" y="44.83" width="6.4" height="6.4"/><rect class="cls-1" x="121.68" y="44.83" width="6.4" height="6.4"/><rect class="cls-1" x="128.08" y="44.83" width="6.4" height="6.4"/><rect class="cls-1" x="134.49" y="44.83" width="6.4" height="6.4"/><rect class="cls-1" x="140.89" y="44.83" width="6.4" height="6.4"/><rect class="cls-1" x="147.3" y="44.83" width="6.4" height="6.4"/><rect class="cls-1" x="153.7" y="44.83" width="6.4" height="6.4"/><rect class="cls-1" x="160.11" y="44.83" width="6.4" height="6.4"/><rect class="cls-1" x="166.51" y="44.83" width="6.4" height="6.4"/><rect class="cls-1" x="172.91" y="44.83" width="6.4" height="6.4"/><rect class="cls-1" x="179.32" y="44.83" width="6.4" height="6.4"/><rect class="cls-1" x="185.72" y="44.83" width="6.4" height="6.4"/><rect class="cls-1" x="192.13" y="44.83" width="6.4" height="6.4"/><rect class="cls-1" x="6.4" y="51.23" width="6.4" height="6.4"/><rect class="cls-3" x="12.81" y="51.23" width="6.4" height="6.4"/><rect class="cls-1" x="19.21" y="51.23" width="6.4" height="6.4"/><rect class="cls-1" x="25.62" y="51.23" width="6.4" height="6.4"/><rect class="cls-1" x="32.02" y="51.23" width="6.4" height="6.4"/><rect class="cls-1" x="57.64" y="51.23" width="6.4" height="6.4"/><rect class="cls-1" x="64.04" y="51.23" width="6.4" height="6.4"/><rect class="cls-1" x="70.45" y="51.23" width="6.4" height="6.4"/><rect class="cls-1" x="96.06" y="51.23" width="6.4" height="6.4"/><rect class="cls-1" x="102.47" y="51.23" width="6.4" height="6.4"/><rect class="cls-1" x="108.87" y="51.23" width="6.4" height="6.4"/><rect class="cls-1" x="115.28" y="51.23" width="6.4" height="6.4"/><rect class="cls-1" x="121.68" y="51.23" width="6.4" height="6.4"/><rect class="cls-1" x="128.08" y="51.23" width="6.4" height="6.4"/><rect class="cls-1" x="134.49" y="51.23" width="6.4" height="6.4"/><rect class="cls-1" x="140.89" y="51.23" width="6.4" height="6.4"/><rect class="cls-1" x="147.3" y="51.23" width="6.4" height="6.4"/><rect class="cls-1" x="172.91" y="51.23" width="6.4" height="6.4"/><rect class="cls-1" x="179.32" y="51.23" width="6.4" height="6.4"/><rect class="cls-1" x="185.72" y="51.23" width="6.4" height="6.4"/><rect class="cls-1" x="192.13" y="51.23" width="6.4" height="6.4"/><rect class="cls-1" x="6.4" y="57.64" width="6.4" height="6.4"/><rect class="cls-1" x="12.81" y="57.64" width="6.4" height="6.4"/><rect class="cls-1" x="19.21" y="57.64" width="6.4" height="6.4"/><rect class="cls-1" x="25.62" y="57.64" width="6.4" height="6.4"/><rect class="cls-1" x="32.02" y="57.64" width="6.4" height="6.4"/><rect class="cls-1" x="57.64" y="57.64" width="6.4" height="6.4"/><rect class="cls-1" x="64.04" y="57.64" width="6.4" height="6.4"/><rect class="cls-1" x="70.45" y="57.64" width="6.4" height="6.4"/><rect class="cls-1" x="76.85" y="57.64" width="6.4" height="6.4"/><rect class="cls-1" x="83.25" y="57.64" width="6.4" height="6.4"/><rect class="cls-1" x="89.66" y="57.64" width="6.4" height="6.4"/><rect class="cls-1" x="96.06" y="57.64" width="6.4" height="6.4"/><rect class="cls-1" x="102.47" y="57.64" width="6.4" height="6.4"/><rect class="cls-1" x="108.87" y="57.64" width="6.4" height="6.4"/><rect class="cls-1" x="115.28" y="57.64" width="6.4" height="6.4"/><rect class="cls-1" x="121.68" y="57.64" width="6.4" height="6.4"/><rect class="cls-1" x="128.08" y="57.64" width="6.4" height="6.4"/><rect class="cls-1" x="134.49" y="57.64" width="6.4" height="6.4"/><rect class="cls-1" x="140.89" y="57.64" width="6.4" height="6.4"/><rect class="cls-1" x="153.7" y="57.64" width="6.4" height="6.4"/><rect class="cls-1" x="160.11" y="57.64" width="6.4" height="6.4"/><rect class="cls-1" x="166.51" y="57.64" width="6.4" height="6.4"/><rect class="cls-1" x="179.32" y="57.64" width="6.4" height="6.4"/><rect class="cls-1" x="185.72" y="57.64" width="6.4" height="6.4"/><rect class="cls-1" x="192.13" y="57.64" width="6.4" height="6.4"/><rect class="cls-1" x="198.53" y="57.64" width="6.4" height="6.4"/><rect class="cls-1" x="6.4" y="64.04" width="6.4" height="6.4"/><rect class="cls-1" x="12.81" y="64.04" width="6.4" height="6.4"/><rect class="cls-1" x="19.21" y="64.04" width="6.4" height="6.4"/><rect class="cls-1" x="25.62" y="64.04" width="6.4" height="6.4"/><rect class="cls-1" x="32.02" y="64.04" width="6.4" height="6.4"/><rect class="cls-1" x="57.64" y="64.04" width="6.4" height="6.4"/><rect class="cls-1" x="64.04" y="64.04" width="6.4" height="6.4"/><rect class="cls-1" x="70.45" y="64.04" width="6.4" height="6.4"/><rect class="cls-1" x="76.85" y="64.04" width="6.4" height="6.4"/><rect class="cls-1" x="83.25" y="64.04" width="6.4" height="6.4"/><rect class="cls-1" x="89.66" y="64.04" width="6.4" height="6.4"/><rect class="cls-1" x="96.06" y="64.04" width="6.4" height="6.4"/><rect class="cls-1" x="102.47" y="64.04" width="6.4" height="6.4"/><rect class="cls-1" x="108.87" y="64.04" width="6.4" height="6.4"/><rect class="cls-1" x="115.28" y="64.04" width="6.4" height="6.4"/><rect class="cls-1" x="121.68" y="64.04" width="6.4" height="6.4"/><rect class="cls-1" x="128.08" y="64.04" width="6.4" height="6.4"/><rect class="cls-1" x="134.49" y="64.04" width="6.4" height="6.4"/><rect class="cls-1" x="147.3" y="64.04" width="6.4" height="6.4"/><rect class="cls-1" x="153.7" y="64.04" width="6.4" height="6.4"/><rect class="cls-1" x="160.11" y="64.04" width="6.4" height="6.4"/><rect class="cls-1" x="166.51" y="64.04" width="6.4" height="6.4"/><rect class="cls-1" x="172.91" y="64.04" width="6.4" height="6.4"/><rect class="cls-1" x="179.32" y="64.04" width="6.4" height="6.4"/><rect class="cls-1" x="185.72" y="64.04" width="6.4" height="6.4"/><rect class="cls-1" x="192.13" y="64.04" width="6.4" height="6.4"/><rect class="cls-1" x="198.53" y="64.04" width="6.4" height="6.4"/><rect class="cls-1" x="6.4" y="70.45" width="6.4" height="6.4"/><rect class="cls-1" x="12.81" y="70.45" width="6.4" height="6.4"/><rect class="cls-1" x="19.21" y="70.45" width="6.4" height="6.4"/><rect class="cls-1" x="25.62" y="70.45" width="6.4" height="6.4"/><rect class="cls-1" x="32.02" y="70.45" width="6.4" height="6.4"/><rect class="cls-1" x="38.43" y="70.45" width="6.4" height="6.4"/><rect class="cls-1" x="44.83" y="70.45" width="6.4" height="6.4"/><rect class="cls-1" x="51.23" y="70.45" width="6.4" height="6.4"/><rect class="cls-1" x="57.64" y="70.45" width="6.4" height="6.4"/><rect class="cls-1" x="64.04" y="70.45" width="6.4" height="6.4"/><rect class="cls-1" x="70.45" y="70.45" width="6.4" height="6.4"/><rect class="cls-1" x="76.85" y="70.45" width="6.4" height="6.4"/><rect class="cls-1" x="83.25" y="70.45" width="6.4" height="6.4"/><rect class="cls-1" x="89.66" y="70.45" width="6.4" height="6.4"/><rect class="cls-1" x="96.06" y="70.45" width="6.4" height="6.4"/><rect class="cls-1" x="102.47" y="70.45" width="6.4" height="6.4"/><rect class="cls-1" x="108.87" y="70.45" width="6.4" height="6.4"/><rect class="cls-1" x="115.28" y="70.45" width="6.4" height="6.4"/><rect class="cls-1" x="121.68" y="70.45" width="6.4" height="6.4"/><rect class="cls-1" x="128.08" y="70.45" width="6.4" height="6.4"/><rect class="cls-1" x="140.89" y="70.45" width="6.4" height="6.4"/><rect class="cls-1" x="147.3" y="70.45" width="6.4" height="6.4"/><rect class="cls-1" x="153.7" y="70.45" width="6.4" height="6.4"/><rect class="cls-1" x="160.11" y="70.45" width="6.4" height="6.4"/><rect class="cls-1" x="166.51" y="70.45" width="6.4" height="6.4"/><rect class="cls-1" x="172.91" y="70.45" width="6.4" height="6.4"/><rect class="cls-1" x="179.32" y="70.45" width="6.4" height="6.4"/><rect class="cls-1" x="185.72" y="70.45" width="6.4" height="6.4"/><rect class="cls-1" x="192.13" y="70.45" width="6.4" height="6.4"/><rect class="cls-1" x="198.53" y="70.45" width="6.4" height="6.4"/><rect class="cls-1" x="204.93" y="70.45" width="6.4" height="6.4"/><rect class="cls-1" x="6.4" y="76.85" width="6.4" height="6.4"/><rect class="cls-1" x="12.81" y="76.85" width="6.4" height="6.4"/><rect class="cls-1" x="19.21" y="76.85" width="6.4" height="6.4"/><rect class="cls-1" x="25.62" y="76.85" width="6.4" height="6.4"/><rect class="cls-1" x="32.02" y="76.85" width="6.4" height="6.4"/><rect class="cls-1" x="38.43" y="76.85" width="6.4" height="6.4"/><rect class="cls-1" x="44.83" y="76.85" width="6.4" height="6.4"/><rect class="cls-1" x="51.23" y="76.85" width="6.4" height="6.4"/><rect class="cls-1" x="57.64" y="76.85" width="6.4" height="6.4"/><rect class="cls-1" x="64.04" y="76.85" width="6.4" height="6.4"/><rect class="cls-1" x="70.45" y="76.85" width="6.4" height="6.4"/><rect class="cls-1" x="76.85" y="76.85" width="6.4" height="6.4"/><rect class="cls-1" x="83.25" y="76.85" width="6.4" height="6.4"/><rect class="cls-1" x="89.66" y="76.85" width="6.4" height="6.4"/><rect class="cls-1" x="96.06" y="76.85" width="6.4" height="6.4"/><rect class="cls-1" x="102.47" y="76.85" width="6.4" height="6.4"/><rect class="cls-1" x="108.87" y="76.85" width="6.4" height="6.4"/><rect class="cls-1" x="115.28" y="76.85" width="6.4" height="6.4"/><rect class="cls-1" x="121.68" y="76.85" width="6.4" height="6.4"/><rect class="cls-1" x="128.08" y="76.85" width="6.4" height="6.4"/><rect class="cls-1" x="140.89" y="76.85" width="6.4" height="6.4"/><rect class="cls-1" x="147.3" y="76.85" width="6.4" height="6.4"/><rect class="cls-1" x="153.7" y="76.85" width="6.4" height="6.4"/><rect class="cls-1" x="160.11" y="76.85" width="6.4" height="6.4"/><rect class="cls-1" x="166.51" y="76.85" width="6.4" height="6.4"/><rect class="cls-1" x="172.91" y="76.85" width="6.4" height="6.4"/><rect class="cls-1" x="179.32" y="76.85" width="6.4" height="6.4"/><rect class="cls-1" x="185.72" y="76.85" width="6.4" height="6.4"/><rect class="cls-1" x="192.13" y="76.85" width="6.4" height="6.4"/><rect class="cls-1" x="198.53" y="76.85" width="6.4" height="6.4"/><rect class="cls-1" x="204.93" y="76.85" width="6.4" height="6.4"/><rect class="cls-1" x="6.4" y="83.25" width="6.4" height="6.4"/><rect class="cls-1" x="12.81" y="83.25" width="6.4" height="6.4"/><rect class="cls-1" x="19.21" y="83.25" width="6.4" height="6.4"/><rect class="cls-1" x="25.62" y="83.25" width="6.4" height="6.4"/><rect class="cls-1" x="32.02" y="83.25" width="6.4" height="6.4"/><rect class="cls-1" x="38.43" y="83.25" width="6.4" height="6.4"/><rect class="cls-1" x="44.83" y="83.25" width="6.4" height="6.4"/><rect class="cls-1" x="64.04" y="83.25" width="6.4" height="6.4"/><rect class="cls-1" x="70.45" y="83.25" width="6.4" height="6.4"/><rect class="cls-1" x="76.85" y="83.25" width="6.4" height="6.4"/><rect class="cls-1" x="83.25" y="83.25" width="6.4" height="6.4"/><rect class="cls-1" x="89.66" y="83.25" width="6.4" height="6.4"/><rect class="cls-1" x="96.06" y="83.25" width="6.4" height="6.4"/><rect class="cls-1" x="102.47" y="83.25" width="6.4" height="6.4"/><rect class="cls-1" x="108.87" y="83.25" width="6.4" height="6.4"/><rect class="cls-1" x="115.28" y="83.25" width="6.4" height="6.4"/><rect class="cls-1" x="121.68" y="83.25" width="6.4" height="6.4"/><rect class="cls-1" x="128.08" y="83.25" width="6.4" height="6.4"/><rect class="cls-1" x="140.89" y="83.25" width="6.4" height="6.4"/><rect class="cls-1" x="147.3" y="83.25" width="6.4" height="6.4"/><rect class="cls-1" x="153.7" y="83.25" width="6.4" height="6.4"/><rect class="cls-1" x="160.11" y="83.25" width="6.4" height="6.4"/><rect class="cls-1" x="166.51" y="83.25" width="6.4" height="6.4"/><rect class="cls-1" x="172.91" y="83.25" width="6.4" height="6.4"/><rect class="cls-1" x="179.32" y="83.25" width="6.4" height="6.4"/><rect class="cls-1" x="185.72" y="83.25" width="6.4" height="6.4"/><rect class="cls-1" x="192.13" y="83.25" width="6.4" height="6.4"/><rect class="cls-1" x="198.53" y="83.25" width="6.4" height="6.4"/><rect class="cls-1" x="204.93" y="83.25" width="6.4" height="6.4"/><rect class="cls-1" x="6.4" y="89.66" width="6.4" height="6.4"/><rect class="cls-1" x="12.81" y="89.66" width="6.4" height="6.4"/><rect class="cls-1" x="19.21" y="89.66" width="6.4" height="6.4"/><rect class="cls-1" x="25.62" y="89.66" width="6.4" height="6.4"/><rect class="cls-1" x="32.02" y="89.66" width="6.4" height="6.4"/><rect class="cls-1" x="38.43" y="89.66" width="6.4" height="6.4"/><rect class="cls-1" x="70.45" y="89.66" width="6.4" height="6.4"/><rect class="cls-1" x="76.85" y="89.66" width="6.4" height="6.4"/><rect class="cls-1" x="83.25" y="89.66" width="6.4" height="6.4"/><rect class="cls-1" x="89.66" y="89.66" width="6.4" height="6.4"/><rect class="cls-1" x="96.06" y="89.66" width="6.4" height="6.4"/><rect class="cls-1" x="102.47" y="89.66" width="6.4" height="6.4"/><rect class="cls-1" x="115.28" y="89.66" width="6.4" height="6.4"/><rect class="cls-1" x="121.68" y="89.66" width="6.4" height="6.4"/><rect class="cls-1" x="128.08" y="89.66" width="6.4" height="6.4"/><rect class="cls-1" x="140.89" y="89.66" width="6.4" height="6.4"/><rect class="cls-1" x="147.3" y="89.66" width="6.4" height="6.4"/><rect class="cls-1" x="153.7" y="89.66" width="6.4" height="6.4"/><rect class="cls-1" x="160.11" y="89.66" width="6.4" height="6.4"/><rect class="cls-1" x="166.51" y="89.66" width="6.4" height="6.4"/><rect class="cls-1" x="172.91" y="89.66" width="6.4" height="6.4"/><rect class="cls-1" x="179.32" y="89.66" width="6.4" height="6.4"/><rect class="cls-1" x="185.72" y="89.66" width="6.4" height="6.4"/><rect class="cls-1" x="192.13" y="89.66" width="6.4" height="6.4"/><rect class="cls-1" x="198.53" y="89.66" width="6.4" height="6.4"/><rect class="cls-1" x="204.93" y="89.66" width="6.4" height="6.4"/><rect class="cls-2" x="6.4" y="96.06" width="6.4" height="6.4"/><rect class="cls-1" x="12.81" y="96.06" width="6.4" height="6.4"/><rect class="cls-1" x="19.21" y="96.06" width="6.4" height="6.4"/><rect class="cls-1" x="25.62" y="96.06" width="6.4" height="6.4"/><rect class="cls-1" x="32.02" y="96.06" width="6.4" height="6.4"/><rect class="cls-1" x="76.85" y="96.06" width="6.4" height="6.4"/><rect class="cls-1" x="89.66" y="96.06" width="6.4" height="6.4"/><rect class="cls-1" x="96.06" y="96.06" width="6.4" height="6.4"/><rect class="cls-1" x="102.47" y="96.06" width="6.4" height="6.4"/><rect class="cls-1" x="108.87" y="96.06" width="6.4" height="6.4"/><rect class="cls-1" x="121.68" y="96.06" width="6.4" height="6.4"/><rect class="cls-1" x="128.08" y="96.06" width="6.4" height="6.4"/><rect class="cls-1" x="140.89" y="96.06" width="6.4" height="6.4"/><rect class="cls-1" x="147.3" y="96.06" width="6.4" height="6.4"/><rect class="cls-1" x="153.7" y="96.06" width="6.4" height="6.4"/><rect class="cls-1" x="160.11" y="96.06" width="6.4" height="6.4"/><rect class="cls-1" x="166.51" y="96.06" width="6.4" height="6.4"/><rect class="cls-1" x="172.91" y="96.06" width="6.4" height="6.4"/><rect class="cls-1" x="179.32" y="96.06" width="6.4" height="6.4"/><rect class="cls-1" x="185.72" y="96.06" width="6.4" height="6.4"/><rect class="cls-1" x="192.13" y="96.06" width="6.4" height="6.4"/><rect class="cls-1" x="198.53" y="96.06" width="6.4" height="6.4"/><rect class="cls-2" x="211.34" y="96.06" width="6.4" height="6.4"/><rect class="cls-2" x="76.85" y="102.47" width="6.4" height="6.4"/><rect class="cls-1" x="83.25" y="102.47" width="6.4" height="6.4"/><rect class="cls-1" x="102.47" y="102.47" width="6.4" height="6.4"/><rect class="cls-1" x="108.87" y="102.47" width="6.4" height="6.4"/><rect class="cls-1" x="147.3" y="102.47" width="6.4" height="6.4"/><rect class="cls-1" x="153.7" y="102.47" width="6.4" height="6.4"/><rect class="cls-1" x="166.51" y="102.47" width="6.4" height="6.4"/><rect class="cls-1" x="172.91" y="102.47" width="6.4" height="6.4"/><rect class="cls-1" x="179.32" y="102.47" width="6.4" height="6.4"/><rect class="cls-1" x="185.72" y="102.47" width="6.4" height="6.4"/><rect class="cls-1" x="192.13" y="102.47" width="6.4" height="6.4"/><rect class="cls-2" x="204.93" y="102.47" width="6.4" height="6.4"/><rect class="cls-2" x="211.34" y="102.47" width="6.4" height="6.4"/><rect class="cls-2" x="217.74" y="102.47" width="6.4" height="6.4"/><rect class="cls-2" x="70.45" y="108.87" width="6.4" height="6.4"/><rect class="cls-2" x="76.85" y="108.87" width="6.4" height="6.4"/><rect class="cls-1" x="89.66" y="108.87" width="6.4" height="6.4"/><rect class="cls-2" x="102.47" y="108.87" width="6.4" height="6.4"/><rect class="cls-1" x="160.11" y="108.87" width="6.4" height="6.4"/><rect class="cls-1" x="166.51" y="108.87" width="6.4" height="6.4"/><rect class="cls-1" x="172.91" y="108.87" width="6.4" height="6.4"/><rect class="cls-2" x="211.34" y="108.87" width="6.4" height="6.4"/><rect class="cls-2" x="217.74" y="108.87" width="6.4" height="6.4"/><rect class="cls-2" x="96.06" y="115.28" width="6.4" height="6.4"/><rect class="cls-2" x="147.3" y="115.28" width="6.4" height="6.4"/><rect class="cls-2" x="153.7" y="115.28" width="6.4" height="6.4"/><rect class="cls-2" x="160.11" y="115.28" width="6.4" height="6.4"/><rect class="cls-2" x="211.34" y="115.28" width="6.4" height="6.4"/><rect class="cls-2" x="217.74" y="115.28" width="6.4" height="6.4"/><rect class="cls-2" x="204.93" y="121.68" width="6.4" height="6.4"/><rect class="cls-2" x="211.34" y="121.68" width="6.4" height="6.4"/><rect class="cls-2" x="217.74" y="121.68" width="6.4" height="6.4"/><rect class="cls-2" x="76.85" y="128.08" width="6.4" height="6.4"/><rect class="cls-2" x="96.06" y="128.08" width="6.4" height="6.4"/><rect class="cls-2" x="198.53" y="128.08" width="6.4" height="6.4"/><rect class="cls-2" x="204.93" y="128.08" width="6.4" height="6.4"/><rect class="cls-2" x="211.34" y="128.08" width="6.4" height="6.4"/><rect class="cls-2" x="217.74" y="128.08" width="6.4" height="6.4"/><rect class="cls-2" x="64.04" y="134.49" width="6.4" height="6.4"/><rect class="cls-2" x="70.45" y="134.49" width="6.4" height="6.4"/><rect class="cls-2" x="76.85" y="134.49" width="6.4" height="6.4"/><rect class="cls-2" x="83.25" y="134.49" width="6.4" height="6.4"/><rect class="cls-2" x="89.66" y="134.49" width="6.4" height="6.4"/><rect class="cls-2" x="96.06" y="134.49" width="6.4" height="6.4"/><rect class="cls-2" x="102.47" y="134.49" width="6.4" height="6.4"/><rect class="cls-2" x="108.87" y="134.49" width="6.4" height="6.4"/><rect class="cls-2" x="115.28" y="134.49" width="6.4" height="6.4"/><rect class="cls-2" x="121.68" y="134.49" width="6.4" height="6.4"/><rect class="cls-2" x="128.08" y="134.49" width="6.4" height="6.4"/><rect class="cls-2" x="134.49" y="134.49" width="6.4" height="6.4"/><rect class="cls-2" x="179.32" y="134.49" width="6.4" height="6.4"/><rect class="cls-2" x="185.72" y="134.49" width="6.4" height="6.4"/><rect class="cls-2" x="192.13" y="134.49" width="6.4" height="6.4"/><rect class="cls-2" x="198.53" y="134.49" width="6.4" height="6.4"/><rect class="cls-2" x="204.93" y="134.49" width="6.4" height="6.4"/><rect class="cls-2" x="211.34" y="134.49" width="6.4" height="6.4"/><rect class="cls-2" x="57.64" y="140.89" width="6.4" height="6.4"/><rect class="cls-2" x="102.47" y="140.89" width="6.4" height="6.4"/><rect class="cls-2" x="108.87" y="140.89" width="6.4" height="6.4"/><rect class="cls-2" x="115.28" y="140.89" width="6.4" height="6.4"/><rect class="cls-2" x="121.68" y="140.89" width="6.4" height="6.4"/><rect class="cls-2" x="128.08" y="140.89" width="6.4" height="6.4"/><rect class="cls-2" x="134.49" y="140.89" width="6.4" height="6.4"/><rect class="cls-2" x="140.89" y="140.89" width="6.4" height="6.4"/><rect class="cls-2" x="147.3" y="140.89" width="6.4" height="6.4"/><rect class="cls-2" x="153.7" y="140.89" width="6.4" height="6.4"/><rect class="cls-2" x="160.11" y="140.89" width="6.4" height="6.4"/><rect class="cls-2" x="166.51" y="140.89" width="6.4" height="6.4"/><rect class="cls-2" x="172.91" y="140.89" width="6.4" height="6.4"/><rect class="cls-2" x="179.32" y="140.89" width="6.4" height="6.4"/><rect class="cls-2" x="185.72" y="140.89" width="6.4" height="6.4"/><rect class="cls-2" x="192.13" y="140.89" width="6.4" height="6.4"/><rect class="cls-2" x="198.53" y="140.89" width="6.4" height="6.4"/><rect class="cls-2" x="204.93" y="140.89" width="6.4" height="6.4"/><rect class="cls-2" x="51.23" y="147.3" width="6.4" height="6.4"/><rect class="cls-2" x="57.64" y="147.3" width="6.4" height="6.4"/><rect class="cls-2" x="134.49" y="147.3" width="6.4" height="6.4"/><rect class="cls-2" x="140.89" y="147.3" width="6.4" height="6.4"/><rect class="cls-2" x="147.3" y="147.3" width="6.4" height="6.4"/><rect class="cls-2" x="153.7" y="147.3" width="6.4" height="6.4"/><rect class="cls-2" x="160.11" y="147.3" width="6.4" height="6.4"/><rect class="cls-2" x="166.51" y="147.3" width="6.4" height="6.4"/><rect class="cls-2" x="172.91" y="147.3" width="6.4" height="6.4"/><rect class="cls-2" x="179.32" y="147.3" width="6.4" height="6.4"/><rect class="cls-2" x="185.72" y="147.3" width="6.4" height="6.4"/><rect class="cls-2" x="192.13" y="147.3" width="6.4" height="6.4"/><rect class="cls-2" x="51.23" y="153.7" width="6.4" height="6.4"/><rect class="cls-2" x="57.64" y="153.7" width="6.4" height="6.4"/></g><g id="Contorno"><rect x="211.34" y="83.25" width="6.4" height="6.4"/><rect x="211.34" y="76.85" width="6.4" height="6.4"/><rect x="211.34" y="70.45" width="6.4" height="6.4"/><rect x="204.93" y="64.04" width="6.4" height="6.4"/><rect x="204.93" y="57.64" width="6.4" height="6.4"/><rect x="198.53" y="51.23" width="6.4" height="6.4"/><rect x="198.53" y="44.83" width="6.4" height="6.4"/><rect x="185.72" y="32.02" width="6.4" height="6.4"/><rect x="185.72" y="25.62" width="6.4" height="6.4"/><rect x="192.13" y="38.43" width="6.4" height="6.4"/><rect x="179.32" y="19.21" width="6.4" height="6.4"/><rect x="172.91" y="12.81" width="6.4" height="6.4"/><rect x="166.51" y="6.4" width="6.4" height="6.4"/><rect x="160.11" width="6.4" height="6.4"/><rect x="153.7" width="6.4" height="6.4"/><rect x="147.3" width="6.4" height="6.4"/><rect x="140.89" width="6.4" height="6.4"/><rect x="134.49" width="6.4" height="6.4"/><rect x="128.08" width="6.4" height="6.4"/><rect x="121.68" width="6.4" height="6.4"/><rect x="115.28" y="6.4" width="6.4" height="6.4"/><rect x="108.87" y="6.4" width="6.4" height="6.4"/><rect x="102.47" y="12.81" width="6.4" height="6.4"/><rect x="96.06" y="19.21" width="6.4" height="6.4"/><rect x="108.87" y="19.21" width="6.4" height="6.4"/><rect x="108.87" y="25.62" width="6.4" height="6.4"/><rect x="108.87" y="32.02" width="6.4" height="6.4"/><rect x="108.87" y="38.43" width="6.4" height="6.4"/><rect x="102.47" y="44.83" width="6.4" height="6.4"/><rect x="96.06" y="44.83" width="6.4" height="6.4"/><rect x="89.66" y="51.23" width="6.4" height="6.4"/><rect x="83.25" y="51.23" width="6.4" height="6.4"/><rect x="76.85" y="51.23" width="6.4" height="6.4"/><rect x="76.85" y="44.83" width="6.4" height="6.4"/><rect x="89.66" y="19.21" width="6.4" height="6.4"/><rect x="83.25" y="25.62" width="6.4" height="6.4"/><rect x="76.85" y="32.02" width="6.4" height="6.4"/><rect x="70.45" y="38.43" width="6.4" height="6.4"/><rect x="64.04" y="32.02" width="6.4" height="6.4"/><rect x="70.45" y="25.62" width="6.4" height="6.4"/><rect x="64.04" y="19.21" width="6.4" height="6.4"/><rect x="57.64" y="19.21" width="6.4" height="6.4"/><rect x="51.23" y="19.21" width="6.4" height="6.4"/><rect x="44.83" y="19.21" width="6.4" height="6.4"/><rect x="38.43" y="19.21" width="6.4" height="6.4"/><rect x="38.43" y="12.81" width="6.4" height="6.4"/><rect x="32.02" y="6.4" width="6.4" height="6.4"/><rect x="25.62" y="12.81" width="6.4" height="6.4"/><rect x="25.62" y="19.21" width="6.4" height="6.4"/><rect x="25.62" width="6.4" height="6.4"/><rect x="19.21" y="6.4" width="6.4" height="6.4"/><rect x="12.81" y="12.81" width="6.4" height="6.4"/><rect x="12.81" y="19.21" width="6.4" height="6.4"/><rect x="12.81" y="25.62" width="6.4" height="6.4"/><rect x="12.81" y="32.02" width="6.4" height="6.4"/><rect x="19.21" y="38.43" width="6.4" height="6.4"/><rect x="12.81" y="44.83" width="6.4" height="6.4"/><rect x="6.4" y="51.23" width="6.4" height="6.4"/><rect x="6.4" y="57.64" width="6.4" height="6.4"/><rect x="6.4" y="64.04" width="6.4" height="6.4"/><rect y="70.45" width="6.4" height="6.4"/><rect y="76.85" width="6.4" height="6.4"/><rect y="83.25" width="6.4" height="6.4"/><rect y="89.66" width="6.4" height="6.4"/><rect y="96.06" width="6.4" height="6.4"/><rect x="6.4" y="102.47" width="6.4" height="6.4"/><rect x="12.81" y="96.06" width="6.4" height="6.4"/><rect x="19.21" y="102.47" width="6.4" height="6.4"/><rect x="25.62" y="102.47" width="6.4" height="6.4"/><rect x="32.02" y="102.47" width="6.4" height="6.4"/><rect x="38.43" y="96.06" width="6.4" height="6.4"/><rect x="44.83" y="89.66" width="6.4" height="6.4"/><rect x="51.23" y="83.25" width="6.4" height="6.4"/><rect x="57.64" y="83.25" width="6.4" height="6.4"/><rect x="64.04" y="89.66" width="6.4" height="6.4"/><rect x="70.45" y="96.06" width="6.4" height="6.4"/><rect x="83.25" y="96.06" width="6.4" height="6.4"/><rect x="70.45" y="102.47" width="6.4" height="6.4"/><rect x="64.04" y="108.87" width="6.4" height="6.4"/><rect x="70.45" y="115.28" width="6.4" height="6.4"/><rect x="76.85" y="115.28" width="6.4" height="6.4"/><rect x="83.25" y="108.87" width="6.4" height="6.4"/><rect x="89.66" y="115.28" width="6.4" height="6.4"/><rect x="89.66" y="102.47" width="6.4" height="6.4"/><rect x="96.06" y="102.47" width="6.4" height="6.4"/><rect x="96.06" y="108.87" width="6.4" height="6.4"/><rect x="96.06" y="121.68" width="6.4" height="6.4"/><rect x="96.06" y="128.08" width="6.4" height="6.4"/><rect x="102.47" y="121.68" width="6.4" height="6.4"/><rect x="89.66" y="128.08" width="6.4" height="6.4"/><rect x="83.25" y="128.08" width="6.4" height="6.4"/><rect x="76.85" y="128.08" width="6.4" height="6.4"/><rect x="70.45" y="128.08" width="6.4" height="6.4"/><rect x="64.04" y="128.08" width="6.4" height="6.4"/><rect x="57.64" y="134.49" width="6.4" height="6.4"/><rect x="51.23" y="140.89" width="6.4" height="6.4"/><rect x="44.83" y="147.3" width="6.4" height="6.4"/><rect x="44.83" y="153.7" width="6.4" height="6.4"/><rect x="51.23" y="160.11" width="6.4" height="6.4"/><rect x="57.64" y="153.7" width="6.4" height="6.4"/><rect x="57.64" y="147.3" width="6.4" height="6.4"/><rect x="64.04" y="140.89" width="6.4" height="6.4"/><rect x="70.45" y="140.89" width="6.4" height="6.4"/><rect x="76.85" y="140.89" width="6.4" height="6.4"/><rect x="83.25" y="140.89" width="6.4" height="6.4"/><rect x="89.66" y="140.89" width="6.4" height="6.4"/><rect x="96.06" y="140.89" width="6.4" height="6.4"/><rect x="102.47" y="147.3" width="6.4" height="6.4"/><rect x="108.87" y="147.3" width="6.4" height="6.4"/><rect x="115.28" y="147.3" width="6.4" height="6.4"/><rect x="121.68" y="147.3" width="6.4" height="6.4"/><rect x="128.08" y="147.3" width="6.4" height="6.4"/><rect x="102.47" y="134.49" width="6.4" height="6.4"/><rect x="108.87" y="134.49" width="6.4" height="6.4"/><rect x="115.28" y="134.49" width="6.4" height="6.4"/><rect x="121.68" y="134.49" width="6.4" height="6.4"/><rect x="128.08" y="134.49" width="6.4" height="6.4"/><rect x="134.49" y="134.49" width="6.4" height="6.4"/><rect x="134.49" y="153.7" width="6.4" height="6.4"/><rect x="140.89" y="153.7" width="6.4" height="6.4"/><rect x="147.3" y="153.7" width="6.4" height="6.4"/><rect x="153.7" y="153.7" width="6.4" height="6.4"/><rect x="160.11" y="153.7" width="6.4" height="6.4"/><rect x="166.51" y="153.7" width="6.4" height="6.4"/><rect x="172.91" y="153.7" width="6.4" height="6.4"/><rect x="179.32" y="153.7" width="6.4" height="6.4"/><rect x="185.72" y="153.7" width="6.4" height="6.4"/><rect x="192.13" y="153.7" width="6.4" height="6.4"/><rect x="140.89" y="140.89" width="6.4" height="6.4"/><rect x="147.3" y="140.89" width="6.4" height="6.4"/><rect x="153.7" y="140.89" width="6.4" height="6.4"/><rect x="160.11" y="140.89" width="6.4" height="6.4"/><rect x="166.51" y="140.89" width="6.4" height="6.4"/><rect x="172.91" y="140.89" width="6.4" height="6.4"/><rect x="179.32" y="134.49" width="6.4" height="6.4"/><rect x="185.72" y="134.49" width="6.4" height="6.4"/><rect x="192.13" y="134.49" width="6.4" height="6.4"/><rect x="198.53" y="121.68" width="6.4" height="6.4"/><rect x="198.53" y="128.08" width="6.4" height="6.4"/><rect x="204.93" y="115.28" width="6.4" height="6.4"/><rect x="204.93" y="108.87" width="6.4" height="6.4"/><rect x="198.53" y="102.47" width="6.4" height="6.4"/><rect x="192.13" y="108.87" width="6.4" height="6.4"/><rect x="185.72" y="108.87" width="6.4" height="6.4"/><rect x="179.32" y="108.87" width="6.4" height="6.4"/><rect x="172.91" y="115.28" width="6.4" height="6.4"/><rect x="166.51" y="115.28" width="6.4" height="6.4"/><rect x="160.11" y="121.68" width="6.4" height="6.4"/><rect x="153.7" y="121.68" width="6.4" height="6.4"/><rect x="147.3" y="121.68" width="6.4" height="6.4"/><rect x="140.89" y="121.68" width="6.4" height="6.4"/><rect x="140.89" y="115.28" width="6.4" height="6.4"/><rect x="147.3" y="108.87" width="6.4" height="6.4"/><rect x="140.89" y="102.47" width="6.4" height="6.4"/><rect x="134.49" y="96.06" width="6.4" height="6.4"/><rect x="134.49" y="89.66" width="6.4" height="6.4"/><rect x="134.49" y="83.25" width="6.4" height="6.4"/><rect x="134.49" y="76.85" width="6.4" height="6.4"/><rect x="134.49" y="70.45" width="6.4" height="6.4"/><rect x="140.89" y="64.04" width="6.4" height="6.4"/><rect x="147.3" y="57.64" width="6.4" height="6.4"/><rect x="153.7" y="51.23" width="6.4" height="6.4"/><rect x="160.11" y="51.23" width="6.4" height="6.4"/><rect x="166.51" y="51.23" width="6.4" height="6.4"/><rect x="172.91" y="57.64" width="6.4" height="6.4"/><rect x="153.7" y="108.87" width="6.4" height="6.4"/><rect x="160.11" y="102.47" width="6.4" height="6.4"/><rect x="204.93" y="96.06" width="6.4" height="6.4"/><rect x="198.53" y="147.3" width="6.4" height="6.4"/><rect x="204.93" y="147.3" width="6.4" height="6.4"/><rect x="211.34" y="140.89" width="6.4" height="6.4"/><rect x="217.74" y="134.49" width="6.4" height="6.4"/><rect x="224.15" y="128.08" width="6.4" height="6.4"/><rect x="224.15" y="121.68" width="6.4" height="6.4"/><rect x="224.15" y="115.28" width="6.4" height="6.4"/><rect x="224.15" y="108.87" width="6.4" height="6.4"/><rect x="224.15" y="102.47" width="6.4" height="6.4"/><rect x="217.74" y="96.06" width="6.4" height="6.4"/><rect x="211.34" y="89.66" width="6.4" height="6.4"/><rect class="cls-2" x="102.47" y="115.28" width="6.4" height="6.4"/><rect x="108.87" y="115.28" width="6.4" height="6.4"/><rect x="108.87" y="108.87" width="6.4" height="6.4"/><rect x="115.28" y="102.47" width="6.4" height="6.4"/><rect x="115.28" y="96.06" width="6.4" height="6.4"/><rect x="108.87" y="89.66" width="6.4" height="6.4"/><rect x="121.68" y="102.47" width="6.4" height="6.4"/><rect x="128.08" y="102.47" width="6.4" height="6.4"/><rect x="12.81" y="57.64" width="6.4" height="6.4"/><rect x="19.21" y="51.23" width="6.4" height="6.4"/><rect x="38.43" y="51.23" width="6.4" height="6.4"/><rect x="44.83" y="51.23" width="6.4" height="6.4"/><rect x="51.23" y="51.23" width="6.4" height="6.4"/><rect x="38.43" y="64.04" width="6.4" height="6.4"/><rect x="44.83" y="64.04" width="6.4" height="6.4"/><rect x="51.23" y="64.04" width="6.4" height="6.4"/><rect x="38.43" y="57.64" width="6.4" height="6.4"/><rect x="51.23" y="57.64" width="6.4" height="6.4"/><rect class="cls-3" x="44.83" y="57.64" width="6.4" height="6.4"/><rect x="25.62" y="32.02" width="6.4" height="6.4"/><rect x="32.02" y="25.62" width="6.4" height="6.4"/><rect x="76.85" y="19.21" width="6.4" height="6.4"/><rect x="83.25" y="12.81" width="6.4" height="6.4"/><rect x="89.66" y="6.4" width="6.4" height="6.4"/><rect x="96.06" y="6.4" width="6.4" height="6.4"/></g></g></g></g></svg>